<?xml version="1.0" encoding="utf-8"?>
<svg width="100mm" height="28.3287mm" version="1.1" style="shape-rendering:geometricPrecision; text-rendering:geometricPrecision; image-rendering:optimizeQuality; fill-rule:evenodd; clip-rule:evenodd" viewBox="0 0 977 587.46" xmlns="http://www.w3.org/2000/svg">
  <defs>
    <style type="text/css">
   
    .fil2 {fill:#898989}
    .fil1 {fill:#FF7E44}
    .fil0 {fill:#FEFEFE;fill-rule:nonzero}
   
  </style>
  </defs>
  <g id="Слой_x0020_1">
    <g id="_222801912">
      <rect class="fil1" x="458.62" y="163.54" width="190.44" height="107.69" rx="29.07" ry="34.19" style="fill: rgb(248, 248, 248);"/>
      <path class="fil1" d="M975.09 453.65l0 -51.37 -151.65 0c17.14,-30.27 24.3,-70.67 24.3,-112.25l0 -34.19c0,-122.32 -54.04,-186.44 -115.37,-220 -60.31,-32.99 -127.45,-35.84 -155.99,-35.84l-30.53 0c-74,0 -240.52,16.86 -370.4,94.68 -82.36,49.35 -150.12,123.13 -171.13,232.54 -16.43,85.57 16.99,113.73 52.06,123.04 16.03,4.26 32.11,4.22 43.42,4.2l20.75 -0.03c0.11,73.49 59.72,133.02 133.23,133.02 73.58,0 133.23,-59.65 133.23,-133.23l-0 -0.19 588.09 -0.39zm-721.32 -60.86c33.93,0 61.44,27.51 61.44,61.44 0,33.93 -27.51,61.44 -61.44,61.44 -33.93,0 -61.44,-27.51 -61.44,-61.44 0,-33.93 27.51,-61.44 61.44,-61.44zm289.69 -334.67l93.97 0c17.87,0 34.1,8.59 45.87,22.42 11.77,13.83 19.07,32.93 19.07,53.93l0 191.45c0,21.01 -7.3,40.1 -19.07,53.93 -11.76,13.83 -28,22.42 -45.87,22.42l-171.02 0c-17.87,0 -34.1,-8.59 -45.87,-22.42 -11.77,-13.83 -19.07,-32.93 -19.07,-53.93l0 -41.02c0,-71.91 15.53,-123.15 37.31,-158.51 30.86,-50.09 74.35,-68.28 104.68,-68.28z" style="fill: rgb(248, 248, 248);"/>
    </g>
  </g>
</svg>