<?xml version="1.0" encoding="UTF-8"?>
<!DOCTYPE svg PUBLIC "-//W3C//DTD SVG 1.1//EN" "http://www.w3.org/Graphics/SVG/1.1/DTD/svg11.dtd">
<!-- Creator: CorelDRAW 2018 -->
<svg xmlns="http://www.w3.org/2000/svg" xml:space="preserve" width="100mm" height="28.3287mm" version="1.1" style="shape-rendering:geometricPrecision; text-rendering:geometricPrecision; image-rendering:optimizeQuality; fill-rule:evenodd; clip-rule:evenodd"
viewBox="0 0 2073.73 587.46"
 xmlns:xlink="http://www.w3.org/1999/xlink">
 <defs>
  <style type="text/css">
   <![CDATA[
    .fil2 {fill:#898989}
    .fil1 {fill:#FF7E44}
    .fil0 {fill:#FEFEFE;fill-rule:nonzero}
   ]]>
  </style>
 </defs>
 <g id="Слой_x0020_1">
  <metadata id="CorelCorpID_0Corel-Layer"/>
  <g id="_222801912">
   <path class="fil0" d="M637.43 77.5l-93.97 0c-26.27,0 -64.12,16.04 -91.35,60.25 -19.94,32.36 -34.15,79.82 -34.15,147.15l0 41.02c0,15.66 5.45,29.9 14.24,40.23 8.78,10.33 20.9,16.74 34.21,16.74l171.02 0c13.32,0 25.43,-6.41 34.21,-16.74 8.79,-10.33 14.24,-24.57 14.24,-40.23l0 -191.45c0,-15.66 -5.45,-29.9 -14.24,-40.23 -8.79,-10.33 -20.9,-16.74 -34.21,-16.74z"/>
   <rect class="fil1" x="458.62" y="163.54" width="190.44" height="107.69" rx="29.07" ry="34.19"/>
   <path class="fil1" d="M975.09 453.65l0 -51.37 -151.65 0c17.14,-30.27 24.3,-70.67 24.3,-112.25l0 -34.19c0,-122.32 -54.04,-186.44 -115.37,-220 -60.31,-32.99 -127.45,-35.84 -155.99,-35.84l-30.53 0c-74,0 -240.52,16.86 -370.4,94.68 -82.36,49.35 -150.12,123.13 -171.13,232.54 -16.43,85.57 16.99,113.73 52.06,123.04 16.03,4.26 32.11,4.22 43.42,4.2l20.75 -0.03c0.11,73.49 59.72,133.02 133.23,133.02 73.58,0 133.23,-59.65 133.23,-133.23l-0 -0.19 588.09 -0.39zm-721.32 -60.86c33.93,0 61.44,27.51 61.44,61.44 0,33.93 -27.51,61.44 -61.44,61.44 -33.93,0 -61.44,-27.51 -61.44,-61.44 0,-33.93 27.51,-61.44 61.44,-61.44zm289.69 -334.67l93.97 0c17.87,0 34.1,8.59 45.87,22.42 11.77,13.83 19.07,32.93 19.07,53.93l0 191.45c0,21.01 -7.3,40.1 -19.07,53.93 -11.76,13.83 -28,22.42 -45.87,22.42l-171.02 0c-17.87,0 -34.1,-8.59 -45.87,-22.42 -11.77,-13.83 -19.07,-32.93 -19.07,-53.93l0 -41.02c0,-71.91 15.53,-123.15 37.31,-158.51 30.86,-50.09 74.35,-68.28 104.68,-68.28z"/>
   <path class="fil2" d="M1116.23 453.65c-0,0.19 -0.01,0.39 -0.01,0.58 0,73.58 59.65,133.23 133.23,133.23 73.58,0 133.23,-59.65 133.23,-133.23 0,-0.19 -0,-0.39 -0.01,-0.58l304.49 0c-0,0.19 -0.01,0.39 -0.01,0.58 0,73.58 59.65,133.23 133.23,133.23 73.58,0 133.23,-59.65 133.23,-133.23 0,-0.19 -0.01,-0.39 -0.01,-0.58l68.4 0c28.25,0 55.14,-23.37 51.37,-51.37l-18.8 -139.52c-3.77,-28 -23.12,-51.37 -51.37,-51.37l-242.21 0 -80.34 -135.41c-20.33,-34.27 -39.33,-75.99 -99.92,-75.99l-448.79 0c-32.39,0 -52.31,44.68 -60.6,75.99l-35.9 135.41 -8.99 0c-28.25,0 -51.37,23.12 -51.37,51.37l0 190.88 141.14 0zm217.68 -394.61l0 152.36 115.38 0 0 -152.36 -115.38 0zm-15.39 152.36l0 -152.36 -28.6 0 -23.41 152.36 52.01 0zm170.08 -152.36l0 152.36 203.25 0 -57.87 -104.93c-15.75,-28.55 -34.5,-47.43 -85.44,-47.43l-59.95 0zm-261.74 152.36l23.41 -152.36 -79.02 0c-27.23,0 -42.98,22.07 -49.51,47.43l-27.03 104.93 132.15 0zm22.59 181.39c33.93,0 61.44,27.51 61.44,61.44 0,33.93 -27.51,61.44 -61.44,61.44 -33.93,0 -61.44,-27.51 -61.44,-61.44 0,-33.93 27.51,-61.44 61.44,-61.44zm570.93 0c33.93,0 61.44,27.51 61.44,61.44 0,33.93 -27.51,61.44 -61.44,61.44 -33.93,0 -61.44,-27.51 -61.44,-61.44 0,-33.93 27.51,-61.44 61.44,-61.44z"/>
  </g>
 </g>
</svg>
