<?xml version="1.0" encoding="UTF-8"?> <svg xmlns="http://www.w3.org/2000/svg" width="314" height="318" viewBox="0 0 314 318" fill="none"> <path fill-rule="evenodd" clip-rule="evenodd" d="M55.2441 220.55H0C3.8532 213.421 7.66599 206.332 11.5748 199.23C13.7231 195.326 13.0484 194.899 10.8559 191.015C7.12772 184.41 3.6072 177.659 0 170.985H55.2441V220.55Z" fill="#B54312"></path> <path fill-rule="evenodd" clip-rule="evenodd" d="M258.723 220.55H313.967C310.114 213.421 306.301 206.332 302.392 199.23C300.244 195.326 300.919 194.899 303.111 191.015C306.839 184.41 310.36 177.659 313.967 170.985H258.723V220.55Z" fill="#B54312"></path> <path fill-rule="evenodd" clip-rule="evenodd" d="M156.5 0.000539923C169.334 -0.0335909 181.94 1.57431 192.189 4.72472C216.267 12.1247 242.668 18.749 269.078 31.2155C273.087 33.1076 274 36.8472 274 40.4805V225.708C274 257.406 215.203 293.525 188.744 309.165C179.398 314.689 167.91 317.783 156.5 318C145.09 317.783 133.602 314.689 124.256 309.165C97.7964 293.525 39 257.406 39 225.708V40.4805C39 36.8472 39.9131 33.1076 43.9217 31.2155C70.3315 18.749 96.7333 12.1247 120.811 4.72472C131.06 1.57431 143.666 -0.0335909 156.5 0.000539923Z" fill="white"></path> <path fill-rule="evenodd" clip-rule="evenodd" d="M156.903 18.0005C168.107 17.9706 179.111 19.3776 188.059 22.1344C209.079 28.6099 232.127 34.4066 255.182 45.3155C258.682 46.9712 259.479 50.2437 259.479 53.423V215.509C259.479 243.247 208.15 274.853 185.051 288.539C176.893 293.372 166.863 296.08 156.903 296.27C146.942 296.08 136.913 293.372 128.754 288.539C105.655 274.853 54.3269 243.247 54.3269 215.509V53.423C54.3269 50.2437 55.124 46.9712 58.6235 45.3155C81.6789 34.4066 104.727 28.6099 125.747 22.1344C134.694 19.3776 145.699 17.9706 156.903 18.0005Z" fill="#0F4B2A"></path> <path d="M65.1741 143.094H66.0861L71.1922 138.507C73.1069 141.674 76.1158 143.094 79.3073 143.094C87.5134 143.094 91.8901 135.23 91.8901 126.056C91.8901 106.07 73.5631 85.5383 73.5631 71.7775C73.5631 68.501 74.2922 64.4599 77.7573 64.4599C81.6782 64.4599 84.687 69.5928 87.9695 94.6027H89.4285V62.0572H88.4254L83.775 67.1901C82.225 64.2415 79.9457 62.0572 76.7542 62.0572C72.0127 62.0572 65.4477 67.5179 65.4477 79.9684C65.4477 98.207 82.5898 115.463 82.5898 131.517C82.5898 139.053 81.6782 140.909 77.7573 140.909C72.3775 140.909 69.0039 131.626 66.4507 108.473H65.1741V143.094ZM105.75 141.892V140.145C103.106 139.708 101.1 137.742 101.1 133.373V69.484H101.647L109.762 141.892H114.321L122.619 69.484H123.075V140.145H119.427V141.892H137.208V140.145H133.652V64.6783H137.026V62.9311H121.798L116.51 108.254H115.962L110.856 62.9311H95.6287V64.6783H99.2763V132.937C99.2763 137.087 97.9997 139.271 94.9903 140.145V141.892H105.75ZM149.152 141.892V140.145C147.603 140.145 144.776 139.271 145.049 136.65L146.235 125.729H156.903L158.271 140.145H154.623V141.892H172.586V140.145H169.304L160.277 62.9311H153.621L143.043 135.23C142.496 139.162 141.402 139.926 139.031 140.145V141.892H149.152ZM146.508 123.981L152.252 84.7738H152.435L156.629 123.981H146.508ZM197.205 132.39C197.205 139.271 199.941 142.548 205.867 142.548C210.609 142.548 214.803 140.909 214.621 128.896H213.162C212.615 136.432 211.977 138.834 209.788 138.834C208.512 138.834 207.965 136.868 207.965 132.609V121.906C207.965 108.691 204.591 105.415 196.749 101.92V101.702C204.956 98.6438 208.42 92.0908 208.42 81.825C208.42 71.9959 203.223 62.9311 191.552 62.9311H176.142V64.6783H179.607V140.145H176.142V141.892H194.378V140.145H190.823V102.575C195.381 102.575 197.205 103.449 197.205 110.439V132.39ZM190.823 64.6783C194.926 64.6783 196.749 65.2244 196.749 70.0297V95.9135C196.749 99.4084 195.746 101.046 190.823 101.046V64.6783ZM215.533 96.678H216.81C219.818 73.7432 222.736 64.5691 226.292 64.4599H226.475V140.145H222.645V141.892H241.52V140.145H237.69V64.4599H237.872C241.429 64.5691 244.346 73.7432 247.355 96.678H248.632V62.9311H215.533V96.678Z" fill="white"></path> <path fill-rule="evenodd" clip-rule="evenodd" d="M39.1392 159.678H274.667V208.506H39.1392V159.678Z" fill="#FC8251"></path> <path d="M66.4656 199.188C76.7137 199.188 88.9399 182.37 88.9399 178.837C88.9399 177.636 88.2811 176.505 87.0821 176.505C84.0257 182.936 74.6161 193.817 68.6229 193.817C65.0271 193.817 63.2889 189.224 63.2889 184.49C63.2889 179.756 65.0271 174.527 68.5032 174.527C70.1212 174.527 71.4399 176.082 72.8783 178.979C75.2156 177.777 76.2345 176.788 76.2345 175.234C76.2345 172.478 72.5189 169.086 67.9639 169.086C59.6931 169.086 55.3179 177.424 55.3179 185.338C55.3179 192.475 58.8544 199.188 66.4656 199.188Z" fill="#0F4B2A"></path> <path d="M117.828 177.707H117.588C114.951 181.381 110.216 189.083 107.879 189.083C106.62 189.083 105.901 187.67 105.901 184.702C105.901 182.653 106.201 179.897 106.86 176.364C106.201 173.326 102.665 169.157 98.1098 169.157C89.839 169.157 83.4863 178.625 83.4863 188.377C83.4863 194.171 86.7229 198.41 91.1577 198.41C94.9935 198.41 99.6681 194.595 101.346 189.154C101.646 191.415 102.665 194.595 105.662 194.595C112.134 194.595 119.086 181.24 119.086 179.12C119.086 178.625 118.606 177.707 117.828 177.707ZM92.4761 191.132C91.5773 191.132 91.1577 189.436 91.1577 188.023C91.1577 183.289 95.2331 173.538 98.4695 173.538C99.4285 173.538 100.088 174.386 100.447 175.516C99.7879 180.039 95.8923 191.132 92.4761 191.132Z" fill="#0F4B2A"></path> <path d="M172.306 177.848C168.59 184.702 161.338 193.111 156.364 193.111C154.147 193.111 153.367 190.85 153.367 187.387C153.367 184.137 153.847 179.968 153.847 176.647C153.847 172.76 151.989 170.287 148.992 170.287C144.377 170.287 141.92 174.527 139.702 180.533C139.762 179.685 139.762 178.838 139.762 178.06C139.762 173.114 137.965 169.651 134.549 169.651C128.675 169.651 125.978 178.06 122.922 186.115C123.221 183.925 123.401 181.381 123.401 178.979C123.401 173.467 122.382 168.38 118.906 168.38C117.528 168.38 116.089 169.086 115.01 170.287C117.108 177.636 115.67 186.115 115.01 195.09C116.209 196.573 117.887 197.35 119.445 197.35C126.398 197.35 130.953 176.152 133.05 176.152C133.709 176.152 133.649 179.685 133.649 180.816C133.649 186.539 132.691 191.91 132.511 193.252C133.469 195.019 134.908 196.008 136.407 196.008C139.163 196.008 141.141 190.85 142.759 185.903C144.257 181.522 145.396 177.354 146.655 177.354C146.835 177.354 147.014 177.636 147.014 178.131C147.014 181.028 146.295 184.561 146.295 189.083C146.295 195.584 149.232 198.057 153.067 198.057C164.634 198.057 174.283 182.512 174.283 179.544C174.283 178.131 173.445 177.848 172.306 177.848" fill="#0F4B2A"></path> <path d="M197.657 176.647C195.68 176.647 193.222 176.859 190.645 177.424C190.945 176.152 191.125 174.951 191.125 173.75C191.125 171.771 190.645 169.863 189.267 168.591C188.248 167.602 186.69 167.037 185.131 167.037C181.655 167.037 176.861 171.559 174.583 173.821C174.763 173.255 175.003 171.418 175.003 169.369C175.003 165.341 173.625 163.433 171.707 163.433C170.448 163.433 168.95 164.281 167.452 165.836C168.71 171.206 168.59 173.962 168.59 179.12C168.59 184.066 169.32 189.558 167.811 198.556C167.54 200.169 167.283 202.432 167.157 203.657C166.659 208.506 175.363 209.572 175.363 199.682C175.363 179.19 180.637 173.467 183.693 173.467C185.071 173.467 185.551 174.385 185.551 175.728C185.551 176.788 185.311 177.919 185.012 179.12C180.457 181.098 176.801 184.278 176.801 189.224C176.801 190.849 177.52 192.121 179.079 192.121C181.715 192.121 186.63 187.246 189.267 181.381C193.282 180.392 197.717 179.968 200.774 179.968C201.493 179.473 201.793 178.908 201.793 178.413C201.793 177.424 200.354 176.647 197.657 176.647V176.647ZM179.738 189.012C179.558 189.012 179.498 188.8 179.498 188.518C179.498 186.539 180.996 184.914 183.214 183.642C181.775 186.61 180.157 189.012 179.738 189.012" fill="#0F4B2A"></path> <path d="M228.043 176.647C224.986 183.43 218.634 193.535 212.28 193.535C209.943 193.535 207.966 192.121 206.647 189.648C210.123 186.822 214.199 182.229 214.199 175.94C214.199 170.57 211.921 167.037 207.546 167.037C200.894 167.037 196.758 175.375 196.758 183.43C196.758 192.192 201.973 199.682 210.603 199.682C221.211 199.682 230.74 182.017 230.74 178.625C230.74 177.212 230.32 175.94 228.043 176.647V176.647ZM207.906 172.69C208.685 172.69 209.644 173.396 209.644 175.658C209.644 179.544 207.546 182.653 205.149 185.338C204.849 183.784 204.669 182.088 204.669 180.18C204.669 175.304 206.527 172.69 207.906 172.69" fill="#0F4B2A"></path> <path fill-rule="evenodd" clip-rule="evenodd" d="M256.81 177.636C253.394 184.702 247.76 197.704 242.247 197.704C240.629 197.704 239.55 196.503 239.55 194.383C239.55 189.295 244.884 182.794 244.884 178.979C244.884 175.092 237.332 175.234 232.657 174.033C233.736 171.489 234.396 169.369 234.396 167.602C234.396 165.341 233.077 164.069 231.1 164.069C229.002 164.069 224.327 166.542 224.327 172.195C224.327 175.022 225.406 180.039 235.594 181.593C234.216 184.349 231.339 188.165 231.339 194.1C231.339 198.622 234.396 203.003 239.85 203.003C250.038 203.003 258.488 181.452 258.488 180.039C258.488 178.696 258.009 177.989 256.81 177.636V177.636ZM230.56 166.896C230.74 166.896 230.8 167.249 230.8 167.814C230.8 168.733 230.32 170.641 229.601 172.549C229.242 172.125 229.062 171.559 229.062 170.853C229.062 169.086 230.08 166.896 230.56 166.896Z" fill="#0F4B2A"></path> <path d="M77.0609 226.487C78.1577 225.634 80.0383 225.918 80.3721 227.809C80.5626 228.888 77.4346 231.504 78.5772 231.239C80.9712 230.684 81.2981 233.284 80.3453 233.456C77.754 233.926 78.9193 234.72 79.1082 234.949C79.6385 235.592 80.2643 235.063 80.8237 235.731C81.1473 236.118 80.4858 237.345 80.817 237.743C81.2373 238.249 80.5944 239.912 81.0793 240.384C82.4045 241.674 83.2487 239.323 83.8395 240.323C91.0811 252.583 96.8222 254.822 102.429 258.783C112.07 265.545 122.106 271.741 132.364 277.222C143.236 283.031 150.838 285.819 158.051 285.763C165.229 285.706 172.364 282.806 182.3 277.243C192.828 271.347 203.153 265.322 212.782 258.983C222.418 252.64 229.651 246.607 237.738 239.258L240.732 241.071C241.337 241.706 241.413 243.258 240.551 243.856C232.286 251.365 225.596 256.527 215.698 263.042C205.795 269.561 195.413 276.003 184.904 281.889C174.196 287.884 166.36 291.01 158.092 291.075C149.86 291.14 141.538 288.147 129.864 281.909C119.418 276.328 109.2 270.02 99.387 263.137C90.6774 257.029 82.3874 250.343 74.3317 243.554C73.6269 242.96 72.4836 242.022 72.3884 241.131C72.3138 240.433 73.2326 239.825 73.1627 239.025C73.0962 238.268 72.1393 237.576 72.2776 236.728C72.4438 235.71 73.4178 234.635 73.721 233.618C74.0078 232.654 73.6564 231.595 74.0653 230.723C74.9202 228.9 75.9902 227.364 77.0602 226.487" fill="white"></path> <path fill-rule="evenodd" clip-rule="evenodd" d="M148.044 272.854L147.466 272.482C146.553 272.889 143.4 275.423 142.789 276.483L143.695 276.84C144.68 275.313 147.634 273.342 148.044 272.854V272.854ZM180.898 239.144L181.265 238.871C180.575 237.876 179.95 236.634 179.594 235.351L179.276 235.598C179.587 236.52 180.028 237.696 180.898 239.144V239.144ZM178.629 234.456L178.977 234.361C178.688 233.582 178.485 232.65 178.467 231.737L178.156 231.823C178.206 232.489 178.298 233.345 178.629 234.456ZM150.668 270.52C150.912 270.709 151.101 270.943 151.203 271.118C151.514 270.805 156.757 268.257 157.276 268.011L156.891 267.595C156.15 267.608 151.24 269.953 150.668 270.52V270.52ZM161.636 266.419C162.667 266.097 167.748 264.506 167.934 264.297C167.904 264.228 167.608 264.079 167.427 264.056C167.111 264.015 166.364 264.327 166.016 264.429C165.393 264.611 164.865 264.769 164.239 264.96C163.513 265.183 161.245 265.713 160.746 266.16C161.08 266.64 161.127 266.577 161.636 266.419V266.419ZM172.034 263.135C173.355 262.625 177.223 261.022 178.2 260.289L177.824 259.933L171.654 262.727L172.034 263.135ZM184.705 254.589C184.597 254.503 184.566 254.416 184.365 254.367C184.074 254.922 181.68 257.502 181.025 258.056C181.226 258.156 181.327 258.313 181.449 258.296C181.782 258.252 185.065 254.874 184.705 254.589ZM186.101 250.567C186.222 249.847 185.766 247.033 185.06 246.205L184.634 246.392C185.102 247.089 185.678 249.63 185.574 250.489C185.649 250.549 185.923 250.517 186.101 250.567ZM184.082 243.771C183.845 243.467 182.324 240.3 182.284 240.271L181.878 240.42C182.306 241.317 183.035 243.13 183.612 243.873C183.681 243.962 184.011 243.759 184.082 243.771V243.771ZM178.075 230.524L178.377 230.602C178.495 229.893 178.743 229.106 179.122 228.413L178.852 228.344C178.603 228.865 178.305 229.548 178.075 230.524V230.524ZM182.478 228.163C182.111 228.621 181.865 229.213 181.751 229.733C180.488 235.48 194.496 244.188 192.193 254.742C191.273 258.955 188.01 262.073 185.395 264.04C183.79 265.247 179.92 267.461 178.043 268.306C176.515 268.994 175.081 269.596 173.521 270.25C170.09 271.686 167.958 272.423 164.592 274.294C163.092 275.127 161.747 275.821 160.472 276.83C158.36 278.502 154.884 282.506 154.605 286.747L140.474 282.561C140.777 281.203 141.043 280.393 141.686 279.416L140.719 279.103C140.272 279.832 139.734 281.019 139.441 282.361L126.21 277.614C128.557 270.161 135.617 266.878 140.419 264.614C146.69 261.657 153.721 259.556 161.579 258.043C166.632 257.07 173.326 255.678 177.052 252.397C181.46 248.514 177.501 241.665 175.585 236.491C175.032 234.996 174.442 232.593 174.701 230.644C174.946 228.805 175.628 227.814 176.401 226.988C178.495 227.393 180.356 227.752 182.478 228.163ZM182.952 228.254C180.268 232.083 185.947 237.187 187.993 240.245C189.294 242.19 190.334 243.255 191.566 245.809C196.269 255.556 190.99 261.894 183.086 266.787C177.069 270.513 170.208 272.554 164.07 276.166C160.703 278.148 156.612 282.9 156.601 287.133L155.355 286.892C156.784 277.942 165.598 274.25 169.49 272.388C172.131 271.124 175.3 270.112 178.461 268.572C184.065 265.843 191.118 261.532 192.548 254.972C193.597 250.159 191.657 246.818 189.831 243.65C188.752 241.775 186.409 238.623 184.972 236.81C183.815 235.351 181.745 232.181 181.89 230.182C181.964 229.149 182.298 228.715 182.705 228.206L182.952 228.254ZM176.134 226.937C175.961 227.138 175.81 227.333 175.697 227.499C171.777 233.273 177.938 240.094 178.704 246.884C179.268 251.876 174.626 253.829 171.763 254.968C163.247 258.358 153.138 257.823 139.586 264.433C134.522 266.902 128.03 269.747 125.431 277.464L124.356 277.256C126.319 270.917 131.922 267.512 138.309 264.102C150.24 257.732 166.964 257.197 174.49 253.188C175.51 252.539 176.402 251.945 177.166 250.981C180.708 246.507 174.458 237.841 174.156 232.213C174.135 230.219 174.582 228.423 175.928 226.897L176.134 226.937Z" fill="white"></path> <path fill-rule="evenodd" clip-rule="evenodd" d="M119.509 237.652C139.867 226.759 180.367 218.667 201.644 231.077C214.452 238.549 222.795 242.572 236.626 241.734C238.475 241.622 238.152 242.723 240.315 242.38C225.381 249.139 211.659 239.5 199.978 233.246C180.024 222.562 140.073 227.722 114.145 242.56L119.509 237.652Z" fill="white"></path> <path fill-rule="evenodd" clip-rule="evenodd" d="M127.68 246.94C127.97 243.291 131.914 245.618 133.845 244.036C136.835 241.589 137.764 244.853 137.546 246.632C137.194 249.507 135.57 250.239 132.068 251.198C129.221 250.675 127.542 248.664 127.68 246.94" fill="white"></path> <path fill-rule="evenodd" clip-rule="evenodd" d="M108.641 255.297C108.932 251.647 112.875 253.974 114.807 252.393C117.797 249.945 118.726 253.209 118.508 254.988C118.155 257.864 116.532 258.595 113.03 259.555C110.182 259.032 108.504 257.021 108.641 255.297" fill="white"></path> <path fill-rule="evenodd" clip-rule="evenodd" d="M205.684 249.525C205.974 245.875 209.917 248.203 211.849 246.621C214.839 244.173 215.768 247.437 215.55 249.216C215.197 252.092 213.574 252.824 210.072 253.783C207.225 253.26 205.546 251.249 205.684 249.525" fill="white"></path> <path fill-rule="evenodd" clip-rule="evenodd" d="M194.887 260.27C195.142 257.074 198.594 259.112 200.285 257.727C202.903 255.585 203.717 258.442 203.526 260C203.217 262.517 201.796 263.158 198.73 263.998C196.236 263.54 194.767 261.779 194.887 260.27Z" fill="white"></path> <path fill-rule="evenodd" clip-rule="evenodd" d="M155.734 221.152C156.089 221.072 156.651 221.647 156.926 221.825C157.296 222.065 157.629 222.405 157.913 222.633L159.723 224.653C159.805 224.769 159.823 224.807 159.954 224.912C160.476 225.328 161.319 226.142 162.164 226.919C154.448 227.115 139.899 229.713 126.827 235.194C126.929 235.094 126.828 235.161 126.963 235.097C126.972 235.093 127.13 235.046 127.15 235.043C127.283 235.022 127.432 235.027 127.567 235.004C127.86 234.953 127.835 234.859 128.179 234.801C128.482 234.749 128.579 234.684 128.828 234.626L129.439 234.459C132.008 233.469 133.551 230.3 136.654 229.435C139.332 228.687 146.358 226.559 147.292 225.295C149.167 222.754 153.528 221.121 153.708 221.137C154.009 220.841 154.421 220.906 155.085 220.954C155.34 220.972 155.29 221.034 155.574 221.05C155.839 221.046 155.678 221.077 155.734 221.152V221.152ZM100.915 233.339C100.86 233.359 100.274 233.837 100.119 233.857L99.2736 234.201C99.006 234.329 99.2856 234.285 98.8612 234.342C98.5909 234.378 98.5977 234.436 98.2825 234.389C98.2865 234.151 98.3921 234.087 98.6382 233.663L98.9443 233.122C99.049 232.871 98.9942 232.997 98.9629 232.868C99.1821 232.734 99.7256 231.661 99.9633 231.29C110.594 216.586 107.964 239.303 123.31 221.018C123.37 220.951 123.322 221.002 123.394 220.929L123.738 220.548C125.793 218.129 129.326 212.484 132.084 211.994C132.259 211.963 132.513 211.967 132.696 211.963C133.084 211.955 133.49 211.952 133.877 211.972L135.655 212.629C148.938 218.71 143.286 220.231 152.607 215.505C155.978 213.796 157.514 213.897 159.59 216.086C159.96 216.285 166.14 224.017 167.212 224.416C167.259 224.734 167.268 224.471 167.402 224.753C167.251 224.749 165.336 224.081 165.063 223.955C164.971 223.912 164.917 223.907 164.817 223.868C160.77 222.275 159.023 216.859 153.351 216.908C150.786 216.972 148.659 219.663 146.915 221.216C146.126 221.918 146.416 221.608 145.869 222.013C145.735 222.113 145.855 221.981 145.786 222.103C145.607 222.111 145.566 222.165 145.386 222.255C144.977 222.462 144.533 222.615 144.036 222.628C143.639 222.639 142.89 222.521 142.595 222.354C142.312 222.193 142.315 222.344 141.788 221.977L141.093 221.539C139.634 220.563 137.236 217.786 135.625 216.466C135.278 216.272 134.983 215.984 134.685 215.958C134.563 215.686 134.369 215.708 133.769 215.524C130.297 214.46 125.051 221.708 122.597 224.225C119.576 227.857 114.492 236.24 110.032 229.444C107.455 226.039 102.586 230.961 100.915 233.339V233.339ZM130.314 223.962C131.571 223.653 131.43 223.213 131.628 222.702C131.793 222.276 132.028 221.253 132.151 220.758C132.499 219.345 134.329 219.296 135.137 220.097C137.258 222.584 137.363 222.279 140.244 223.694C140.461 223.801 140.372 223.807 140.634 223.901C141.073 224.057 141.161 224.169 140.768 224.39C140.622 224.472 140.612 224.497 140.439 224.563C137.821 225.575 138.387 226.095 134.776 226.008C134.038 225.99 133.449 225.876 132.695 225.882C130.174 225.903 127.036 228.271 124.969 229.579C124.845 229.696 124.896 229.675 124.868 229.748C124.576 229.745 124.684 229.781 124.47 229.915C124.285 230.031 124.265 229.944 124.164 230.117L123.816 230.19C123.851 230.076 124.056 229.901 124.167 229.779C124.335 229.594 124.708 229.215 124.778 229.048C125.735 227.592 128.341 224.447 130.314 223.962" fill="white"></path> <path d="M88.4108 250.591C88.1145 250.518 87.952 250.418 87.7188 250.165C87.3012 249.711 86.9735 248.886 86.9867 248.319C86.9907 248.143 86.9933 247.969 86.9907 247.934C86.9827 247.802 86.846 247.879 86.5481 248.183C86.0942 248.648 85.7956 248.74 85.3679 248.545C85.1467 248.444 84.8329 248.127 84.701 247.873C84.4104 247.311 84.5476 246.274 85.0877 244.952C85.3372 244.342 85.3081 244.279 84.8832 244.514C84.5064 244.723 84.2645 244.761 83.814 244.685C83.3401 244.605 83.1737 244.496 83.006 244.154C82.7849 243.702 82.8212 242.93 83.088 242.407C83.3249 241.942 83.7841 241.578 84.1164 241.591C84.2551 241.596 84.3269 241.574 84.3477 241.52C84.3912 241.406 84.3491 241.383 84.0721 241.367C83.732 241.348 83.1805 241.115 82.9088 240.876C82.5763 240.584 82.5007 240.386 82.4972 239.802C82.4932 239.107 82.5853 238.958 83.2649 238.575C83.7645 238.292 84.1508 238.187 84.5465 238.224C84.9384 238.26 85.7725 238.436 86.2156 238.574C86.6124 238.699 87.0535 238.692 87.0784 238.561C87.0917 238.495 87.0308 238.473 86.7704 238.449C86.2945 238.405 86.0829 238.327 85.8814 238.119C85.66 237.891 85.5795 237.624 85.6444 237.333C85.7125 237.031 85.8221 236.936 86.2367 236.817C86.9177 236.621 87.3977 236.346 87.3977 236.151C87.3977 236.04 87.3792 236.034 87.0516 236.047C86.7413 236.059 86.3199 235.923 86.1297 235.748C86.0401 235.666 85.9377 235.503 85.9026 235.385C85.7968 235.032 85.9013 234.89 86.6181 234.41C87.4367 233.861 87.4976 233.701 86.8248 233.866C86.4095 233.967 85.9919 233.945 85.7616 233.809C85.5972 233.712 85.3935 233.343 85.3935 233.141C85.3935 232.798 85.6217 232.543 86.2034 232.239C86.6958 231.98 86.6903 231.941 86.1441 231.835C85.5424 231.717 84.8209 231.242 84.6225 230.831C84.4969 230.573 84.4357 230.095 84.4905 229.803C84.5393 229.543 84.9176 229.173 85.3557 228.958C85.6872 228.794 85.7158 228.789 86.112 228.824C86.4978 228.857 86.524 228.853 86.524 228.76C86.524 228.679 86.4756 228.654 86.27 228.627C86.0832 228.602 85.9484 228.54 85.762 228.393C85.3258 228.047 84.7253 227.094 84.7253 226.747C84.7253 226.49 85.2903 226.096 85.8361 225.973C86.1623 225.9 87.0334 225.901 87.465 225.977C87.6854 226.015 87.9964 226.133 88.3532 226.313C88.6552 226.465 88.9224 226.577 88.9467 226.562C89.034 226.508 88.9874 226.421 88.7644 226.225C88.4794 225.974 88.2203 225.587 88.2203 225.412C88.2203 225.205 88.3559 225.058 88.6179 224.982C88.7493 224.943 88.8638 224.891 88.8725 224.865C88.8805 224.839 88.8181 224.772 88.7326 224.716C88.552 224.596 88.3231 224.171 88.3231 223.955C88.3231 223.752 88.4772 223.551 88.7849 223.354C89.1118 223.144 89.1144 223.045 88.7985 222.862C88.3944 222.628 88.185 222.44 87.9696 222.117C87.719 221.742 87.6189 221.338 87.7058 221.053C87.8608 220.547 87.9568 220.499 88.7324 220.543C89.1737 220.568 89.3015 220.561 89.3484 220.504C89.418 220.42 89.3881 220.389 89.0363 220.171C88.7279 219.98 88.5732 219.771 88.3676 219.267C88.1401 218.71 88.1084 218.19 88.281 217.857C88.4409 217.55 88.6181 217.431 88.9584 217.403C89.1803 217.385 89.2954 217.405 89.5132 217.506C89.952 217.707 90.009 217.633 89.7656 217.182C89.3906 216.488 89.2293 215.624 89.3412 214.909C89.4145 214.442 89.5435 214.184 89.7131 214.164C89.9347 214.138 90.0359 214.309 90.068 214.76C90.0896 215.065 90.1137 215.156 90.1731 215.156C90.2365 215.156 90.2567 215.017 90.2865 214.359C90.3065 213.921 90.3459 213.389 90.3741 213.177C90.4021 212.965 90.4406 212.607 90.4588 212.381C90.5494 211.272 90.9474 210.023 91.2786 209.805C91.4645 209.684 91.8878 209.688 92.0284 209.813C92.4865 210.222 92.881 212.156 92.985 214.502C93.0112 215.091 93.027 215.183 93.0977 215.17C93.1616 215.158 93.1853 215.067 93.2054 214.762C93.2349 214.313 93.3392 214.138 93.5625 214.164C93.668 214.176 93.7156 214.234 93.8075 214.461C93.9053 214.704 93.922 214.843 93.9235 215.429C93.9247 216.029 93.9088 216.162 93.7942 216.504C93.7221 216.718 93.5837 217.046 93.4862 217.232C93.3206 217.549 93.3153 217.574 93.4043 217.614C93.4681 217.643 93.5656 217.625 93.6993 217.557C94.4893 217.16 95.17 217.637 95.094 218.535C95.0524 219.022 94.7742 219.678 94.4881 219.961C94.36 220.088 94.1748 220.239 94.0769 220.296C93.9795 220.353 93.8993 220.434 93.8993 220.476C93.8993 220.539 94.0093 220.552 94.5437 220.552C95.0703 220.552 95.213 220.568 95.3253 220.642C95.4693 220.736 95.5801 221.032 95.5801 221.323C95.5801 221.825 95.204 222.404 94.6401 222.769C94.2081 223.048 94.1643 223.126 94.3589 223.272C94.7343 223.553 94.953 223.803 94.9518 223.95C94.9505 224.182 94.7644 224.545 94.5536 224.728C94.3948 224.867 94.3752 224.904 94.439 224.946C94.4813 224.973 94.5664 224.997 94.6276 224.997C94.801 224.998 95.0558 225.24 95.0558 225.404C95.0558 225.595 94.8181 225.953 94.504 226.235C94.3169 226.403 94.2547 226.491 94.286 226.542C94.3215 226.599 94.4512 226.555 94.9372 226.322C95.4217 226.088 95.631 226.018 95.9758 225.969C96.5424 225.89 97.3106 225.934 97.6909 226.068C98.0572 226.198 98.4778 226.499 98.5186 226.662C98.5685 226.861 98.4159 227.264 98.1361 227.672C97.674 228.347 97.3349 228.629 96.9536 228.657C96.7941 228.667 96.7223 228.697 96.7113 228.756C96.6901 228.867 96.8628 228.908 97.0919 228.845C97.4729 228.739 98.0148 228.941 98.4525 229.35C98.5885 229.478 98.7273 229.664 98.7601 229.764C98.8448 230.02 98.7919 230.546 98.6528 230.833C98.4476 231.257 97.6388 231.789 97.0859 231.863C96.8337 231.897 96.7004 231.959 96.7004 232.042C96.7004 232.065 96.8564 232.161 97.0469 232.254C97.4974 232.476 97.8063 232.773 97.8527 233.031C97.9056 233.323 97.6924 233.764 97.4495 233.866C97.2239 233.96 96.706 233.962 96.3595 233.87C96.0816 233.796 95.9584 233.822 96.006 233.947C96.0214 233.988 96.3053 234.202 96.6368 234.424C96.9678 234.646 97.2714 234.873 97.3106 234.93C97.3504 234.986 97.3825 235.12 97.3825 235.228C97.3825 235.7 96.9157 236.048 96.282 236.048C96.0078 236.048 95.919 236.067 95.8957 236.128C95.8265 236.309 96.3371 236.647 96.8947 236.791C97.5115 236.95 97.6256 237.067 97.6256 237.543C97.6256 237.841 97.5016 238.092 97.2752 238.25C97.1005 238.372 96.4339 238.535 96.2929 238.491C96.2087 238.464 96.1863 238.479 96.1863 238.563C96.1863 238.622 96.2155 238.672 96.2505 238.676C96.4316 238.694 96.8912 238.653 96.9683 238.612C97.0609 238.563 97.7778 238.403 98.4733 238.277C99.039 238.174 99.4348 238.263 100.059 238.631C100.656 238.983 100.73 239.09 100.753 239.636C100.782 240.311 100.737 240.494 100.474 240.776C100.186 241.084 99.6239 241.354 99.2061 241.384C98.9587 241.402 98.9106 241.421 98.9106 241.502C98.9106 241.583 98.9495 241.599 99.1363 241.599C99.3221 241.599 99.4159 241.639 99.6715 241.827C99.93 242.017 100.013 242.12 100.175 242.448C100.346 242.793 100.373 242.898 100.391 243.294C100.43 244.1 100.197 244.533 99.6558 244.66C99.1173 244.787 98.8127 244.76 98.4196 244.551C98.1952 244.432 98.0568 244.385 98.0238 244.418C97.9914 244.451 98.0463 244.645 98.1808 244.974C98.5209 245.806 98.6555 246.336 98.6895 246.98C98.7187 247.53 98.7141 247.567 98.5825 247.836C98.3917 248.226 98.1044 248.507 97.7892 248.612C97.3957 248.742 97.1852 248.666 96.7359 248.228C96.3171 247.819 96.2426 247.822 96.2777 248.245C96.3106 248.64 96.2097 249.047 95.9524 249.556C95.7017 250.053 95.4617 250.333 95.1413 250.505C94.9508 250.607 96.4573 255.868 95.885 255.863C93.93 257.128 91.5712 249.677 88.411 250.591H88.4108Z" fill="white"></path> <path d="M205.983 235.651C206.244 235.446 206.534 235.238 206.859 235.022C207.874 234.345 208.325 233.84 208.623 233.045C208.792 232.6 208.927 231.937 208.927 231.552C208.927 231.183 208.88 231.137 208.638 231.267C208.516 231.332 208.372 231.352 207.987 231.352C207.554 231.353 207.466 231.339 207.26 231.236C207.131 231.171 206.916 231.013 206.781 230.883C206.59 230.699 206.522 230.591 206.461 230.379C206.386 230.12 206.388 230.095 206.482 229.744C206.633 229.19 206.914 228.667 207.326 228.173C207.804 227.6 208.232 227.224 209.078 226.632C210.352 225.741 210.726 225.348 211.167 224.436C211.516 223.716 211.614 223.459 211.578 223.364C211.558 223.31 211.475 223.302 211.165 223.324C210.667 223.36 210.499 223.302 210.222 223.007C209.911 222.674 209.849 222.502 209.888 222.07C209.926 221.653 210.046 221.366 210.395 220.861C210.938 220.074 211.852 219.302 213.417 218.308C214.216 217.8 214.402 217.645 214.569 217.353C214.717 217.095 214.834 216.671 214.79 216.555C214.766 216.494 214.738 216.493 214.577 216.548C214.034 216.736 213.508 216.145 213.608 215.458C213.648 215.179 213.845 214.537 213.958 214.311C214.092 214.048 214.365 213.799 215.05 213.313C215.401 213.064 215.844 212.716 216.037 212.541C216.839 211.807 216.956 211.695 217.134 211.478L217.319 211.25L217.569 211.558C217.706 211.727 217.948 211.976 218.109 212.113C218.268 212.249 218.521 212.471 218.67 212.605C218.818 212.741 219.209 213.044 219.539 213.282C219.869 213.52 220.23 213.802 220.343 213.909C220.833 214.375 221.166 215.549 220.951 216.053C220.858 216.271 220.603 216.513 220.411 216.566C220.315 216.593 220.193 216.591 220.088 216.564C219.769 216.475 219.757 216.514 219.933 217.07C220.089 217.559 220.258 217.704 221.878 218.742C222.823 219.348 223.875 220.313 224.317 220.98C224.598 221.404 224.7 221.671 224.741 222.084C224.778 222.461 224.695 222.695 224.421 222.999C224.156 223.292 223.986 223.352 223.482 223.333L223.053 223.316L223.06 223.471C223.064 223.558 223.223 223.945 223.418 224.341C223.709 224.934 223.828 225.123 224.123 225.455C224.492 225.87 224.689 226.03 225.759 226.783C226.431 227.255 227.079 227.859 227.467 228.371C227.852 228.879 228.2 229.705 228.2 230.112C228.2 230.539 227.926 230.93 227.439 231.193C227.157 231.346 227.119 231.354 226.671 231.354C226.307 231.354 226.153 231.333 225.999 231.264C225.725 231.14 225.682 231.194 225.697 231.627C225.717 232.143 225.914 232.887 226.166 233.399C226.457 233.987 226.914 234.455 227.729 234.998C228.851 235.745 229.582 236.404 230.152 237.185C230.579 237.769 230.778 238.117 230.973 238.624C231.232 239.297 231.219 240.275 230.944 240.782C230.654 241.315 229.844 241.495 229.154 241.181C228.954 241.089 228.786 240.955 228.524 240.675C228.31 240.447 228.145 240.308 228.112 240.328C228.029 240.38 228.049 240.621 228.158 240.875C228.282 241.164 228.251 241.375 228.049 241.605C227.825 241.861 227.573 241.971 227.279 241.939C226.967 241.908 226.844 241.841 226.413 241.472C226.124 241.227 226.02 241.097 225.849 240.775C225.573 240.257 225.498 240.253 225.494 240.755C225.49 241.226 225.41 241.484 225.19 241.731C225.028 241.914 225.003 241.926 224.709 241.945C224.452 241.961 224.358 241.945 224.149 241.847C223.751 241.662 223.512 241.458 223.294 241.119C222.948 240.579 222.826 240.552 222.775 241.004C222.717 241.517 222.357 241.908 221.942 241.906C221.577 241.906 221.044 241.591 220.881 241.278C220.838 241.198 220.727 240.93 220.633 240.685C220.407 240.091 220.326 240.085 220.325 240.661C220.324 240.988 220.302 241.132 220.226 241.297C219.965 241.868 219.242 242.117 218.447 241.909C218.235 241.854 217.998 241.755 217.807 241.649V240.756C217.893 240.578 217.952 240.403 217.952 240.304C217.952 240.163 217.868 240.214 217.807 240.374L212.416 238.388L205.982 235.651L205.983 235.651Z" fill="white"></path> <path d="M233.918 245.757C233.739 245.703 233.605 245.541 233.525 245.283C233.392 244.852 233.32 244.843 233.131 245.231C233.054 245.388 232.947 245.548 232.892 245.588C232.8 245.653 232.773 245.656 232.587 245.614C232.28 245.545 232.114 245.362 231.944 244.901C231.865 244.687 231.826 244.627 231.746 244.599C231.657 244.567 231.631 244.58 231.506 244.715C231.429 244.799 231.32 244.879 231.264 244.893C231.007 244.957 230.58 244.789 230.26 244.496C229.987 244.247 229.865 244.034 229.866 243.811C229.866 243.63 230.004 243.217 230.132 243.009C230.281 242.768 230.217 242.67 229.877 242.622C229.755 242.605 229.62 242.566 229.577 242.536C229.379 242.398 229.244 242.106 229.176 241.672C229.125 241.346 229.177 241.192 229.448 240.869C229.676 240.597 229.726 240.508 229.702 240.416C229.683 240.344 229.656 240.334 229.488 240.334C228.928 240.334 228.583 240.034 228.582 239.546C228.582 239.344 228.682 238.984 228.782 238.826C228.913 238.618 229.266 238.283 229.44 238.202C229.688 238.086 230.007 238.034 230.318 238.06C230.528 238.077 230.614 238.071 230.667 238.032C230.765 237.96 230.713 237.906 230.381 237.733C229.993 237.532 229.664 237.287 229.552 237.117C229.433 236.938 229.421 236.689 229.522 236.496C229.632 236.285 230.058 235.872 230.328 235.714C230.466 235.633 230.588 235.545 230.598 235.518C230.634 235.425 230.544 235.332 230.355 235.264C230.22 235.215 230.14 235.157 230.075 235.062C229.897 234.8 229.966 234.545 230.446 233.708C230.843 233.014 230.854 232.806 230.496 232.758C230.208 232.719 230.092 232.494 230.168 232.125C230.201 231.967 230.274 231.821 230.45 231.561C230.765 231.097 230.806 231.014 230.778 230.888C230.747 230.749 230.664 230.679 230.405 230.579C230.224 230.51 230.185 230.479 230.175 230.399C230.169 230.345 230.19 230.251 230.222 230.19C230.324 229.992 230.736 229.617 231.007 229.474C231.149 229.4 231.286 229.314 231.31 229.285C231.379 229.201 231.302 229.099 231.128 229.042C230.908 228.969 230.673 228.747 230.575 228.518C230.502 228.349 230.494 228.284 230.514 228.032C230.552 227.533 230.773 227.27 231.406 226.971C231.922 226.728 231.933 226.679 231.518 226.479C231.082 226.269 230.866 225.958 230.941 225.647C231.045 225.213 231.147 225.106 231.728 224.816C232.317 224.522 232.353 224.493 232.339 224.321C232.329 224.208 232.278 224.148 231.927 223.841L231.528 223.49L231.551 223.343C231.624 222.884 232.124 222.367 232.656 222.199C232.856 222.136 232.966 222.034 232.918 221.956C232.906 221.936 232.862 221.92 232.822 221.92C232.652 221.92 232.152 221.688 231.991 221.534C231.845 221.394 231.829 221.362 231.829 221.205C231.829 220.867 232.035 220.594 232.567 220.225C232.719 220.119 232.856 220.011 232.872 219.983C232.919 219.898 232.8 219.823 232.577 219.796C231.989 219.724 231.816 219.312 232.258 219.038C232.367 218.971 232.43 218.962 232.707 218.973C232.884 218.979 233.049 218.972 233.075 218.956C233.158 218.903 233.123 218.823 232.975 218.724C232.786 218.6 232.6 218.309 232.577 218.106C232.564 217.988 232.581 217.905 232.642 217.784C232.844 217.387 233.07 217.202 233.516 217.066C233.785 216.983 233.822 216.962 233.822 216.886C233.822 216.819 233.769 216.769 233.581 216.659C233.342 216.519 233.19 216.362 233.122 216.186C233.027 215.935 233.4 215.421 233.813 215.233C234.086 215.11 234.106 215.039 233.91 214.889C233.714 214.74 233.622 214.507 233.651 214.234C233.663 214.114 233.704 213.947 233.742 213.862C233.822 213.682 234.084 213.432 234.194 213.432C234.302 213.432 234.412 213.365 234.412 213.3C234.412 213.269 234.375 213.179 234.33 213.101L234.248 212.958L234.321 212.743C234.446 212.374 234.722 212.145 234.979 212.197C235.043 212.21 235.205 212.272 235.34 212.335C235.562 212.439 235.589 212.465 235.644 212.618C235.723 212.838 235.72 212.922 235.63 213.037C235.498 213.205 235.537 213.277 235.803 213.353C236.193 213.464 236.45 214.108 236.274 214.531C236.243 214.607 236.149 214.728 236.065 214.8C235.873 214.966 235.891 215.025 236.173 215.15C236.489 215.289 236.744 215.564 236.844 215.874C236.922 216.114 236.753 216.362 236.35 216.596C236.208 216.678 236.165 216.724 236.165 216.793C236.165 216.87 236.195 216.892 236.387 216.949C236.879 217.098 237.079 217.244 237.289 217.61C237.509 217.993 237.41 218.301 236.941 218.685C236.843 218.765 236.837 218.781 236.885 218.839C236.93 218.893 236.979 218.9 237.2 218.881C237.524 218.854 237.693 218.898 237.841 219.049C237.999 219.211 238 219.402 237.843 219.535C237.724 219.635 237.523 219.705 237.353 219.705C237.296 219.705 237.217 219.723 237.178 219.744C237.035 219.82 237.096 219.914 237.453 220.163C237.643 220.296 237.843 220.457 237.898 220.521C238.136 220.804 238.213 221.146 238.085 221.342C237.97 221.518 237.504 221.763 237.171 221.824C237.095 221.838 237.033 221.861 237.033 221.876C237.033 221.954 237.157 222.06 237.298 222.102C237.742 222.234 238.115 222.547 238.32 222.956C238.495 223.307 238.485 223.346 238.134 223.661C237.633 224.109 237.623 224.12 237.623 224.235C237.623 224.385 237.726 224.467 238.189 224.688C238.408 224.793 238.646 224.929 238.717 224.992C238.863 225.12 239.007 225.381 239.045 225.586C239.1 225.881 238.88 226.192 238.484 226.379C238.202 226.512 238.195 226.517 238.195 226.609C238.195 226.683 238.257 226.726 238.608 226.901C239.256 227.221 239.427 227.432 239.459 227.946C239.475 228.206 239.466 228.277 239.395 228.443C239.297 228.67 239.13 228.829 238.862 228.947C238.755 228.994 238.658 229.058 238.647 229.089C238.618 229.162 238.736 229.267 238.986 229.392C239.359 229.579 239.8 230.061 239.8 230.281C239.8 230.396 239.788 230.408 239.582 230.483C239.281 230.592 239.189 230.701 239.206 230.927C239.209 230.959 239.333 231.17 239.482 231.396C239.746 231.796 239.838 232.015 239.838 232.252C239.838 232.478 239.679 232.656 239.478 232.657C239.405 232.658 239.327 232.689 239.28 232.736C239.154 232.862 239.205 233.041 239.524 233.598C240.003 234.434 240.078 234.695 239.915 234.959C239.858 235.05 239.783 235.107 239.661 235.152C239.565 235.187 239.454 235.247 239.413 235.284C239.314 235.377 239.362 235.446 239.638 235.61C239.954 235.798 240.334 236.171 240.449 236.407C240.531 236.574 240.543 236.634 240.521 236.782C240.499 236.934 240.465 236.987 240.268 237.179C240.127 237.315 239.903 237.475 239.683 237.596C239.486 237.704 239.308 237.814 239.286 237.84C239.209 237.933 239.331 237.967 239.727 237.963C240.282 237.957 240.531 238.044 240.865 238.359C241.002 238.489 241.16 238.678 241.216 238.78C241.35 239.027 241.425 239.391 241.385 239.601C241.368 239.689 241.353 239.774 241.352 239.788C241.351 239.803 241.296 239.876 241.231 239.951C241.07 240.134 240.866 240.221 240.594 240.223C240.348 240.224 240.301 240.243 240.267 240.353C240.249 240.41 240.3 240.497 240.47 240.704C240.778 241.079 240.846 241.238 240.813 241.507C240.767 241.889 240.659 242.167 240.49 242.343C240.349 242.491 240.314 242.507 240.102 242.532C239.75 242.572 239.694 242.662 239.854 242.936C240.005 243.194 240.142 243.648 240.114 243.799C240.041 244.199 239.574 244.631 239.053 244.78C238.792 244.855 238.634 244.815 238.487 244.639C238.433 244.575 238.365 244.508 238.336 244.492C238.236 244.433 238.114 244.563 238.029 244.818C237.946 245.069 237.784 245.313 237.623 245.433C237.503 245.521 237.184 245.561 237.072 245.501C237.023 245.475 236.934 245.339 236.858 245.174C236.786 245.018 236.71 244.88 236.688 244.866C236.608 244.815 236.528 244.911 236.465 245.135C236.351 245.549 236.186 245.684 235.799 245.684C235.604 245.684 235.212 245.569 235.169 245.499C235.158 245.481 235.182 245.399 235.223 245.318C235.318 245.133 235.321 245.02 235.232 245.02C235.191 245.02 235.138 245.079 235.09 245.177L235.013 245.334L234.909 245.122C234.851 245.005 234.782 244.91 234.755 244.91C234.652 244.91 234.661 245.037 234.781 245.268C234.898 245.495 234.9 245.505 234.836 245.575C234.756 245.664 234.344 245.796 234.161 245.792C234.086 245.791 233.978 245.774 233.919 245.757H233.918Z" fill="white"></path> <path d="M198.295 231.607C198.205 231.58 198.138 231.498 198.098 231.368C198.031 231.152 197.994 231.147 197.899 231.342C197.861 231.421 197.806 231.502 197.779 231.522C197.733 231.555 197.719 231.556 197.626 231.535C197.471 231.5 197.388 231.408 197.302 231.176C197.263 231.069 197.243 231.038 197.203 231.024C197.158 231.009 197.145 231.015 197.082 231.083C197.043 231.125 196.989 231.165 196.96 231.172C196.831 231.205 196.616 231.12 196.455 230.973C196.318 230.847 196.257 230.74 196.257 230.628C196.257 230.537 196.326 230.329 196.391 230.224C196.466 230.103 196.434 230.054 196.263 230.03C196.201 230.021 196.133 230.002 196.112 229.987C196.012 229.917 195.944 229.771 195.91 229.553C195.884 229.388 195.911 229.311 196.047 229.149C196.162 229.012 196.187 228.967 196.174 228.921C196.165 228.885 196.152 228.879 196.067 228.879C195.786 228.879 195.612 228.728 195.612 228.483C195.611 228.382 195.662 228.201 195.712 228.121C195.778 228.017 195.955 227.848 196.043 227.807C196.168 227.749 196.328 227.723 196.484 227.736C196.59 227.745 196.633 227.741 196.66 227.721C196.709 227.686 196.683 227.658 196.516 227.572C196.321 227.47 196.156 227.347 196.099 227.262C196.039 227.172 196.034 227.046 196.084 226.949C196.14 226.843 196.354 226.636 196.489 226.556C196.559 226.516 196.62 226.471 196.625 226.458C196.643 226.411 196.599 226.364 196.503 226.33C196.435 226.305 196.395 226.276 196.362 226.228C196.273 226.097 196.308 225.968 196.549 225.547C196.749 225.198 196.754 225.094 196.574 225.07C196.43 225.05 196.371 224.937 196.409 224.751C196.426 224.671 196.462 224.598 196.551 224.468C196.709 224.234 196.73 224.192 196.716 224.129C196.7 224.059 196.658 224.024 196.528 223.974C196.437 223.939 196.418 223.923 196.413 223.883C196.41 223.856 196.42 223.809 196.436 223.778C196.488 223.679 196.695 223.489 196.831 223.418C196.902 223.38 196.971 223.338 196.983 223.323C197.018 223.281 196.979 223.229 196.892 223.2C196.782 223.164 196.663 223.052 196.614 222.937C196.577 222.852 196.573 222.819 196.583 222.693C196.602 222.441 196.714 222.31 197.032 222.159C197.291 222.037 197.297 222.013 197.088 221.912C196.869 221.807 196.76 221.65 196.798 221.493C196.85 221.275 196.902 221.221 197.194 221.076C197.489 220.928 197.508 220.913 197.501 220.827C197.495 220.769 197.47 220.74 197.294 220.585L197.093 220.408L197.105 220.335C197.141 220.104 197.393 219.843 197.66 219.759C197.761 219.728 197.816 219.676 197.792 219.637C197.785 219.628 197.764 219.619 197.744 219.619C197.658 219.619 197.407 219.502 197.326 219.425C197.252 219.354 197.244 219.339 197.244 219.259C197.244 219.089 197.348 218.952 197.616 218.767C197.692 218.713 197.761 218.659 197.769 218.645C197.793 218.602 197.733 218.564 197.621 218.551C197.325 218.515 197.238 218.307 197.46 218.17C197.515 218.136 197.547 218.131 197.686 218.137C197.775 218.141 197.858 218.136 197.871 218.129C197.913 218.103 197.895 218.062 197.82 218.013C197.726 217.95 197.632 217.804 197.621 217.701C197.614 217.643 197.622 217.601 197.653 217.54C197.755 217.34 197.868 217.247 198.093 217.179C198.228 217.137 198.247 217.126 198.247 217.088C198.247 217.054 198.22 217.029 198.126 216.974C198.005 216.904 197.929 216.825 197.895 216.736C197.847 216.61 198.034 216.351 198.242 216.257C198.38 216.195 198.39 216.159 198.291 216.084C198.193 216.009 198.146 215.892 198.161 215.755C198.167 215.694 198.188 215.61 198.206 215.568C198.247 215.477 198.379 215.351 198.434 215.351C198.488 215.351 198.544 215.318 198.544 215.284C198.544 215.269 198.525 215.224 198.502 215.185L198.461 215.113L198.497 215.005C198.561 214.819 198.699 214.704 198.828 214.73C198.861 214.737 198.942 214.768 199.01 214.8C199.122 214.852 199.135 214.865 199.163 214.942C199.203 215.052 199.201 215.095 199.156 215.152C199.089 215.237 199.109 215.273 199.243 215.311C199.439 215.367 199.569 215.691 199.48 215.904C199.464 215.942 199.417 216.003 199.375 216.039C199.278 216.123 199.288 216.152 199.429 216.215C199.588 216.285 199.716 216.424 199.767 216.579C199.806 216.699 199.721 216.824 199.518 216.942C199.447 216.983 199.425 217.007 199.425 217.041C199.425 217.08 199.44 217.091 199.537 217.12C199.784 217.195 199.885 217.268 199.99 217.452C200.101 217.645 200.051 217.799 199.816 217.993C199.766 218.033 199.763 218.041 199.788 218.07C199.81 218.098 199.835 218.101 199.946 218.091C200.108 218.078 200.193 218.099 200.268 218.176C200.348 218.257 200.348 218.354 200.269 218.42C200.209 218.471 200.108 218.506 200.023 218.506C199.994 218.506 199.954 218.515 199.934 218.525C199.862 218.564 199.893 218.611 200.073 218.736C200.168 218.803 200.269 218.884 200.296 218.916C200.416 219.059 200.455 219.23 200.39 219.329C200.332 219.417 200.098 219.541 199.931 219.572C199.893 219.578 199.862 219.59 199.862 219.598C199.862 219.637 199.924 219.69 199.995 219.711C200.218 219.778 200.406 219.935 200.509 220.141C200.597 220.317 200.592 220.337 200.415 220.495C200.163 220.721 200.158 220.726 200.158 220.784C200.158 220.859 200.21 220.9 200.443 221.012C200.553 221.065 200.673 221.133 200.708 221.165C200.782 221.229 200.854 221.36 200.873 221.463C200.901 221.611 200.79 221.768 200.591 221.862C200.449 221.929 200.446 221.932 200.446 221.978C200.446 222.015 200.477 222.037 200.654 222.125C200.979 222.286 201.065 222.391 201.081 222.65C201.089 222.781 201.085 222.817 201.049 222.9C201 223.014 200.916 223.094 200.781 223.153C200.728 223.177 200.679 223.209 200.673 223.225C200.659 223.262 200.718 223.314 200.844 223.377C201.031 223.471 201.253 223.714 201.253 223.825C201.253 223.883 201.247 223.888 201.143 223.926C200.992 223.981 200.946 224.036 200.954 224.149C200.955 224.166 201.018 224.272 201.093 224.386C201.226 224.586 201.272 224.696 201.272 224.816C201.272 224.929 201.192 225.019 201.091 225.019C201.055 225.02 201.015 225.036 200.991 225.059C200.928 225.122 200.954 225.213 201.114 225.493C201.355 225.913 201.393 226.044 201.311 226.177C201.282 226.223 201.244 226.252 201.183 226.274C201.135 226.292 201.079 226.322 201.059 226.341C201.009 226.387 201.033 226.422 201.172 226.504C201.331 226.599 201.522 226.787 201.58 226.905C201.621 226.989 201.627 227.019 201.616 227.094C201.605 227.17 201.588 227.197 201.488 227.293C201.418 227.362 201.305 227.442 201.194 227.503C201.095 227.558 201.005 227.613 200.994 227.626C200.956 227.673 201.017 227.69 201.217 227.688C201.495 227.685 201.621 227.729 201.788 227.887C201.858 227.952 201.937 228.048 201.965 228.099C202.033 228.223 202.07 228.406 202.05 228.511C202.042 228.556 202.034 228.598 202.033 228.606C202.033 228.612 202.006 228.65 201.972 228.687C201.892 228.78 201.789 228.823 201.652 228.824C201.529 228.825 201.505 228.835 201.488 228.89C201.479 228.918 201.504 228.962 201.59 229.066C201.745 229.255 201.779 229.335 201.762 229.47C201.739 229.662 201.685 229.802 201.6 229.891C201.529 229.965 201.512 229.973 201.405 229.985C201.228 230.005 201.2 230.051 201.28 230.189C201.356 230.318 201.425 230.547 201.411 230.623C201.374 230.824 201.139 231.041 200.877 231.116C200.746 231.154 200.667 231.134 200.593 231.045C200.566 231.013 200.531 230.979 200.517 230.971C200.466 230.942 200.405 231.007 200.362 231.135C200.32 231.262 200.239 231.384 200.158 231.444C200.098 231.489 199.937 231.509 199.881 231.479C199.856 231.465 199.812 231.397 199.774 231.314C199.737 231.236 199.699 231.166 199.688 231.159C199.648 231.134 199.607 231.182 199.576 231.295C199.518 231.503 199.436 231.571 199.241 231.571C199.143 231.571 198.946 231.513 198.924 231.477C198.919 231.468 198.931 231.428 198.952 231.387C198.999 231.293 199.001 231.237 198.956 231.237C198.935 231.237 198.908 231.266 198.884 231.316L198.845 231.395L198.793 231.288C198.764 231.229 198.729 231.181 198.716 231.181C198.664 231.181 198.668 231.245 198.729 231.361C198.788 231.476 198.789 231.481 198.757 231.516C198.716 231.561 198.509 231.627 198.417 231.625C198.38 231.624 198.325 231.616 198.295 231.607H198.296L198.295 231.607Z" fill="white"></path> <path d="M145.099 256.878C144.955 256.843 144.876 256.794 144.763 256.671C144.561 256.452 144.402 256.052 144.409 255.777C144.41 255.691 144.412 255.608 144.41 255.59C144.406 255.526 144.34 255.564 144.196 255.711C143.976 255.937 143.831 255.981 143.624 255.887C143.516 255.838 143.364 255.684 143.3 255.561C143.16 255.289 143.226 254.786 143.488 254.146C143.609 253.85 143.595 253.819 143.389 253.933C143.206 254.034 143.089 254.053 142.871 254.016C142.641 253.977 142.56 253.925 142.479 253.759C142.372 253.539 142.39 253.166 142.519 252.912C142.634 252.687 142.856 252.51 143.017 252.517C143.084 252.519 143.119 252.509 143.129 252.482C143.15 252.427 143.13 252.416 142.996 252.409C142.831 252.399 142.564 252.287 142.432 252.171C142.271 252.029 142.234 251.933 142.232 251.65C142.231 251.313 142.276 251.241 142.605 251.055C142.847 250.918 143.034 250.867 143.226 250.885C143.416 250.903 143.82 250.988 144.034 251.055C144.226 251.115 144.44 251.112 144.452 251.049C144.459 251.016 144.43 251.005 144.303 250.994C144.073 250.973 143.97 250.935 143.873 250.834C143.765 250.724 143.726 250.594 143.758 250.453C143.791 250.307 143.844 250.261 144.045 250.203C144.375 250.108 144.607 249.975 144.607 249.88C144.607 249.827 144.598 249.824 144.44 249.83C144.289 249.837 144.085 249.77 143.993 249.686C143.95 249.646 143.9 249.566 143.883 249.51C143.831 249.338 143.882 249.27 144.23 249.037C144.626 248.771 144.656 248.694 144.33 248.773C144.129 248.822 143.926 248.812 143.815 248.746C143.735 248.699 143.636 248.52 143.636 248.422C143.636 248.256 143.746 248.132 144.028 247.985C144.267 247.859 144.264 247.841 144 247.789C143.708 247.732 143.359 247.502 143.262 247.303C143.202 247.178 143.172 246.946 143.198 246.805C143.222 246.678 143.406 246.499 143.618 246.395C143.779 246.316 143.792 246.313 143.984 246.33C144.171 246.346 144.184 246.345 144.184 246.299C144.184 246.26 144.16 246.248 144.061 246.235C143.97 246.223 143.905 246.192 143.815 246.121C143.603 245.954 143.312 245.492 143.312 245.324C143.312 245.199 143.586 245.008 143.85 244.948C144.008 244.913 144.431 244.914 144.64 244.95C144.747 244.968 144.897 245.025 145.07 245.112C145.217 245.186 145.346 245.24 145.358 245.233C145.4 245.207 145.378 245.165 145.27 245.07C145.131 244.949 145.006 244.761 145.006 244.676C145.006 244.576 145.072 244.505 145.199 244.467C145.262 244.449 145.318 244.424 145.322 244.411C145.326 244.399 145.296 244.366 145.254 244.339C145.167 244.281 145.056 244.074 145.056 243.97C145.056 243.872 145.131 243.774 145.279 243.679C145.438 243.577 145.439 243.529 145.286 243.441C145.09 243.327 144.989 243.236 144.885 243.08C144.763 242.898 144.715 242.702 144.757 242.564C144.832 242.319 144.878 242.295 145.254 242.317C145.468 242.329 145.53 242.325 145.553 242.298C145.586 242.257 145.572 242.242 145.401 242.136C145.252 242.044 145.177 241.942 145.078 241.699C144.967 241.429 144.952 241.176 145.036 241.015C145.113 240.866 145.199 240.809 145.364 240.795C145.471 240.786 145.527 240.796 145.633 240.845C145.845 240.942 145.873 240.907 145.755 240.688C145.573 240.352 145.495 239.933 145.549 239.587C145.585 239.36 145.647 239.235 145.73 239.226C145.837 239.214 145.886 239.296 145.902 239.514C145.912 239.662 145.924 239.706 145.952 239.706C145.983 239.706 145.993 239.639 146.007 239.32C146.017 239.108 146.036 238.85 146.05 238.748C146.064 238.645 146.082 238.471 146.091 238.361C146.135 237.825 146.327 237.219 146.488 237.114C146.578 237.055 146.783 237.057 146.851 237.118C147.073 237.316 147.265 238.253 147.315 239.39C147.328 239.675 147.335 239.72 147.369 239.713C147.4 239.708 147.412 239.664 147.422 239.516C147.436 239.298 147.487 239.213 147.595 239.226C147.646 239.233 147.669 239.26 147.714 239.37C147.761 239.487 147.769 239.555 147.77 239.839C147.77 240.13 147.763 240.194 147.707 240.36C147.672 240.464 147.605 240.623 147.558 240.713C147.478 240.866 147.475 240.878 147.518 240.898C147.549 240.912 147.596 240.903 147.661 240.87C148.044 240.678 148.374 240.909 148.337 241.344C148.317 241.58 148.182 241.898 148.043 242.035C147.981 242.097 147.891 242.17 147.844 242.197C147.797 242.225 147.758 242.264 147.758 242.285C147.758 242.315 147.811 242.322 148.07 242.322C148.325 242.322 148.395 242.33 148.449 242.365C148.519 242.411 148.572 242.554 148.572 242.695C148.572 242.939 148.39 243.219 148.117 243.395C147.908 243.531 147.886 243.569 147.981 243.639C148.162 243.776 148.269 243.897 148.268 243.968C148.267 244.08 148.177 244.256 148.075 244.345C147.998 244.412 147.989 244.43 148.02 244.451C148.04 244.464 148.081 244.475 148.111 244.475C148.195 244.476 148.318 244.593 148.318 244.673C148.318 244.765 148.203 244.939 148.051 245.075C147.961 245.157 147.93 245.199 147.945 245.224C147.962 245.252 148.026 245.231 148.261 245.117C148.496 245.005 148.597 244.97 148.764 244.947C149.039 244.908 149.411 244.93 149.596 244.995C149.773 245.057 149.977 245.203 149.997 245.282C150.021 245.379 149.947 245.574 149.811 245.772C149.587 246.099 149.423 246.235 149.238 246.249C149.161 246.254 149.126 246.269 149.12 246.297C149.11 246.351 149.194 246.37 149.305 246.34C149.49 246.289 149.752 246.386 149.964 246.585C150.03 246.647 150.097 246.737 150.114 246.785C150.155 246.909 150.129 247.164 150.062 247.303C149.962 247.509 149.57 247.767 149.302 247.803C149.18 247.819 149.115 247.849 149.115 247.889C149.115 247.9 149.191 247.947 149.283 247.992C149.501 248.099 149.651 248.243 149.674 248.368C149.7 248.51 149.596 248.723 149.478 248.773C149.369 248.819 149.118 248.819 148.95 248.774C148.815 248.739 148.756 248.751 148.779 248.811C148.787 248.831 148.924 248.935 149.085 249.043C149.245 249.15 149.392 249.26 149.411 249.288C149.43 249.315 149.446 249.38 149.446 249.432C149.446 249.661 149.22 249.83 148.913 249.83C148.78 249.83 148.737 249.839 148.725 249.869C148.692 249.956 148.939 250.12 149.21 250.19C149.508 250.267 149.564 250.324 149.564 250.554C149.564 250.699 149.503 250.82 149.394 250.897C149.309 250.956 148.986 251.035 148.918 251.014C148.877 251 148.866 251.008 148.866 251.049C148.866 251.077 148.88 251.101 148.897 251.103C148.985 251.113 149.208 251.093 149.245 251.072C149.29 251.049 149.638 250.971 149.975 250.91C150.249 250.86 150.44 250.903 150.743 251.081C151.032 251.252 151.068 251.304 151.079 251.569C151.093 251.895 151.071 251.985 150.944 252.121C150.804 252.27 150.532 252.401 150.329 252.416C150.21 252.425 150.186 252.434 150.186 252.473C150.186 252.512 150.205 252.52 150.296 252.52C150.386 252.52 150.431 252.539 150.555 252.63C150.68 252.723 150.72 252.772 150.799 252.931C150.882 253.098 150.895 253.149 150.904 253.341C150.923 253.732 150.81 253.942 150.548 254.003C150.286 254.064 150.139 254.051 149.949 253.95C149.84 253.893 149.772 253.87 149.757 253.886C149.741 253.902 149.768 253.996 149.833 254.155C149.998 254.558 150.063 254.815 150.079 255.127C150.093 255.394 150.091 255.412 150.027 255.542C149.935 255.731 149.796 255.867 149.643 255.918C149.452 255.981 149.35 255.944 149.133 255.732C148.93 255.534 148.894 255.535 148.911 255.74C148.927 255.931 148.878 256.129 148.753 256.375C148.631 256.616 148.515 256.752 148.36 256.835C148.268 256.884 148.222 256.89 147.945 256.888C147.408 256.884 147.026 256.778 146.819 256.579L146.696 256.46L146.738 256.378C146.794 256.27 146.815 255.732 146.763 255.732C146.716 255.732 146.7 255.813 146.7 256.056C146.699 256.261 146.668 256.389 146.64 256.304C146.634 256.284 146.624 256.161 146.619 256.031C146.61 255.794 146.592 255.719 146.549 255.746C146.51 255.77 146.521 256.212 146.563 256.331C146.584 256.39 146.594 256.459 146.586 256.484C146.564 256.552 146.365 256.695 146.21 256.753C145.946 256.851 145.292 256.924 145.099 256.877L145.099 256.878Z" fill="white"></path> <path d="M162.829 248.38C162.676 248.339 162.648 248.323 162.519 248.207C162.369 248.073 162.324 247.947 162.324 247.663C162.324 247.481 162.313 247.404 162.289 247.396C162.253 247.384 162.208 247.475 162.082 247.812C161.994 248.048 161.895 248.171 161.712 248.27C161.511 248.38 161.294 248.395 161.168 248.31C161.049 248.228 160.925 248.03 160.906 247.891C160.878 247.685 160.868 247.661 160.812 247.661C160.773 247.661 160.726 247.712 160.656 247.831C160.453 248.172 160.128 248.396 159.836 248.396C159.617 248.396 159.512 248.332 159.412 248.136C159.339 247.995 159.33 247.952 159.33 247.731C159.33 247.405 159.289 247.393 159.14 247.68C158.951 248.043 158.578 248.359 158.304 248.387C158.124 248.406 158.012 248.36 157.864 248.209C157.738 248.079 157.711 247.949 157.78 247.795C157.838 247.667 157.849 247.468 157.8 247.451C157.781 247.444 157.72 247.492 157.663 247.557C157.339 247.931 157.168 248.027 156.813 248.028C156.613 248.029 156.561 248.018 156.424 247.951C156.154 247.818 156.051 247.575 156.051 247.068C156.051 246.604 156.203 246.223 156.613 245.656C156.952 245.187 157.358 244.818 158.01 244.383C158.598 243.991 158.859 243.699 159.032 243.239C159.129 242.981 159.207 242.598 159.207 242.374C159.208 242.161 159.18 242.134 159.04 242.209C158.969 242.247 158.886 242.258 158.664 242.259C158.412 242.259 158.362 242.251 158.242 242.191C158.167 242.154 158.043 242.062 157.965 241.987C157.855 241.88 157.815 241.818 157.78 241.695C157.736 241.545 157.737 241.531 157.792 241.328C157.879 241.007 158.042 240.704 158.28 240.418C158.557 240.087 158.805 239.869 159.295 239.526C160.032 239.01 160.248 238.782 160.504 238.254C160.706 237.838 160.763 237.689 160.742 237.634C160.73 237.603 160.682 237.599 160.503 237.611C160.215 237.631 160.117 237.599 159.957 237.427C159.777 237.235 159.742 237.135 159.764 236.885C159.786 236.644 159.855 236.477 160.057 236.185C160.372 235.729 160.9 235.283 161.806 234.707C162.269 234.413 162.377 234.323 162.474 234.154C162.559 234.005 162.627 233.759 162.601 233.692C162.588 233.657 162.571 233.656 162.478 233.688C162.164 233.797 161.859 233.454 161.917 233.057C161.94 232.895 162.054 232.524 162.12 232.393C162.198 232.241 162.355 232.096 162.752 231.815C162.955 231.671 163.212 231.469 163.323 231.368C163.788 230.943 163.855 230.878 163.958 230.753L164.066 230.621L164.21 230.799C164.29 230.897 164.43 231.041 164.523 231.12C164.615 231.199 164.761 231.327 164.847 231.405C164.933 231.483 165.16 231.66 165.351 231.797C165.542 231.935 165.751 232.098 165.816 232.16C166.1 232.429 166.293 233.109 166.168 233.401C166.114 233.527 165.967 233.668 165.856 233.698C165.8 233.714 165.729 233.713 165.668 233.696C165.484 233.645 165.477 233.668 165.579 233.989C165.669 234.272 165.767 234.356 166.705 234.957C167.252 235.308 167.862 235.867 168.117 236.253C168.279 236.498 168.339 236.652 168.362 236.892C168.384 237.11 168.336 237.246 168.177 237.422C168.024 237.591 167.925 237.626 167.633 237.615L167.385 237.605L167.389 237.695C167.392 237.745 167.484 237.97 167.596 238.199C167.765 238.542 167.834 238.651 168.005 238.843C168.218 239.083 168.332 239.176 168.952 239.612C169.341 239.886 169.716 240.235 169.94 240.531C170.164 240.826 170.365 241.304 170.365 241.539C170.365 241.787 170.206 242.013 169.925 242.165C169.761 242.254 169.739 242.259 169.479 242.259C169.269 242.259 169.18 242.247 169.091 242.206C168.933 242.135 168.907 242.166 168.916 242.417C168.927 242.716 169.041 243.146 169.187 243.442C169.356 243.783 169.62 244.054 170.092 244.368C170.741 244.8 171.165 245.182 171.495 245.634C171.742 245.972 171.857 246.174 171.97 246.467C172.121 246.857 172.113 247.423 171.953 247.716C171.785 248.025 171.317 248.129 170.918 247.948C170.801 247.895 170.704 247.817 170.552 247.655C170.428 247.523 170.333 247.442 170.314 247.454C170.266 247.484 170.277 247.623 170.341 247.77C170.413 247.938 170.394 248.06 170.278 248.193C170.148 248.341 170.002 248.405 169.832 248.387C169.651 248.368 169.58 248.33 169.33 248.117C169.164 247.974 169.103 247.899 169.004 247.713C168.844 247.413 168.801 247.411 168.798 247.702C168.797 247.974 168.75 248.124 168.623 248.267C168.528 248.373 168.514 248.379 168.344 248.39C168.195 248.4 168.141 248.39 168.02 248.334C167.789 248.227 167.651 248.109 167.525 247.912C167.324 247.6 167.254 247.584 167.225 247.846C167.191 248.143 166.982 248.369 166.742 248.368C166.53 248.368 166.222 248.186 166.127 248.005C166.103 247.958 166.039 247.803 165.984 247.661C165.853 247.317 165.807 247.314 165.806 247.647C165.805 247.836 165.792 247.92 165.749 248.015C165.598 248.346 165.179 248.49 164.719 248.37C164.509 248.315 164.256 248.186 164.169 248.091C164.13 248.048 164.136 248.032 164.228 247.906C164.334 247.762 164.432 247.537 164.432 247.441C164.432 247.35 164.372 247.396 164.337 247.513C164.296 247.653 164.239 247.76 164.14 247.884L164.06 247.985L163.994 247.898C163.883 247.751 163.844 247.679 163.795 247.531C163.767 247.447 163.732 247.389 163.708 247.389C163.68 247.389 163.674 247.409 163.687 247.464C163.717 247.596 163.828 247.82 163.92 247.935L164.01 248.048L163.915 248.127C163.786 248.235 163.625 248.31 163.39 248.371C163.158 248.431 163.029 248.433 162.829 248.379V248.38L162.829 248.38Z" fill="white"></path> <path d="M169.815 225.403C169.759 225.387 169.716 225.335 169.691 225.254C169.649 225.117 169.626 225.114 169.567 225.237C169.542 225.287 169.508 225.337 169.491 225.35C169.462 225.371 169.454 225.371 169.395 225.358C169.298 225.336 169.245 225.278 169.192 225.133C169.167 225.065 169.154 225.046 169.129 225.037C169.101 225.028 169.093 225.03 169.053 225.074C169.029 225.101 168.994 225.126 168.977 225.13C168.896 225.15 168.761 225.097 168.66 225.005C168.574 224.926 168.535 224.859 168.535 224.788C168.535 224.731 168.579 224.6 168.62 224.535C168.666 224.459 168.646 224.428 168.539 224.413C168.5 224.408 168.458 224.395 168.444 224.386C168.381 224.342 168.339 224.25 168.318 224.113C168.301 224.01 168.318 223.961 168.403 223.859C168.476 223.773 168.491 223.745 168.483 223.716C168.477 223.693 168.469 223.69 168.416 223.69C168.239 223.69 168.13 223.595 168.13 223.441C168.13 223.377 168.161 223.264 168.193 223.214C168.234 223.148 168.346 223.043 168.401 223.017C168.479 222.98 168.58 222.963 168.678 222.972C168.745 222.977 168.772 222.975 168.788 222.963C168.819 222.94 168.803 222.923 168.698 222.868C168.575 222.805 168.471 222.727 168.436 222.674C168.398 222.617 168.395 222.538 168.426 222.478C168.461 222.411 168.596 222.281 168.681 222.231C168.725 222.205 168.763 222.177 168.766 222.169C168.778 222.139 168.749 222.11 168.689 222.088C168.647 222.073 168.622 222.055 168.601 222.025C168.545 221.942 168.567 221.861 168.718 221.597C168.844 221.378 168.847 221.312 168.734 221.297C168.643 221.285 168.606 221.213 168.631 221.097C168.641 221.047 168.664 221.001 168.719 220.919C168.819 220.772 168.832 220.746 168.823 220.706C168.814 220.662 168.787 220.64 168.705 220.609C168.648 220.587 168.636 220.577 168.633 220.552C168.632 220.535 168.637 220.505 168.647 220.486C168.68 220.424 168.81 220.305 168.896 220.26C168.94 220.236 168.983 220.209 168.991 220.2C169.013 220.174 168.988 220.141 168.934 220.123C168.864 220.1 168.79 220.03 168.759 219.957C168.736 219.905 168.733 219.884 168.74 219.804C168.752 219.646 168.821 219.564 169.022 219.469C169.184 219.392 169.188 219.377 169.057 219.314C168.919 219.248 168.851 219.149 168.874 219.051C168.908 218.914 168.94 218.88 169.123 218.788C169.309 218.695 169.321 218.686 169.316 218.632C169.312 218.596 169.297 218.578 169.186 218.48L169.06 218.37L169.067 218.323C169.09 218.178 169.248 218.015 169.416 217.962C169.479 217.942 169.514 217.91 169.498 217.885C169.494 217.878 169.481 217.873 169.468 217.873C169.414 217.873 169.256 217.8 169.206 217.752C169.16 217.707 169.155 217.697 169.155 217.648C169.155 217.541 169.22 217.454 169.388 217.338C169.436 217.305 169.479 217.27 169.484 217.262C169.499 217.235 169.461 217.211 169.39 217.203C169.205 217.18 169.15 217.05 169.29 216.963C169.325 216.942 169.344 216.939 169.432 216.943C169.488 216.945 169.54 216.942 169.548 216.937C169.574 216.921 169.563 216.895 169.516 216.864C169.457 216.825 169.398 216.733 169.391 216.669C169.387 216.632 169.392 216.605 169.412 216.567C169.475 216.442 169.547 216.383 169.687 216.34C169.773 216.314 169.784 216.308 169.784 216.284C169.784 216.263 169.767 216.247 169.708 216.212C169.632 216.168 169.584 216.118 169.563 216.063C169.533 215.983 169.651 215.821 169.781 215.762C169.867 215.722 169.874 215.7 169.812 215.653C169.75 215.606 169.721 215.532 169.73 215.446C169.734 215.408 169.747 215.356 169.759 215.329C169.784 215.272 169.867 215.193 169.901 215.193C169.935 215.193 169.971 215.172 169.971 215.151C169.971 215.142 169.959 215.113 169.945 215.088L169.918 215.043L169.941 214.975C169.981 214.858 170.068 214.786 170.149 214.803C170.17 214.807 170.221 214.826 170.263 214.846C170.334 214.879 170.342 214.887 170.359 214.936C170.384 215.005 170.383 215.032 170.356 215.068C170.314 215.121 170.326 215.144 170.41 215.168C170.533 215.203 170.615 215.407 170.559 215.54C170.549 215.564 170.52 215.602 170.493 215.625C170.432 215.677 170.438 215.696 170.527 215.735C170.627 215.779 170.707 215.866 170.739 215.964C170.764 216.04 170.71 216.118 170.583 216.192C170.538 216.218 170.525 216.233 170.525 216.254C170.525 216.279 170.534 216.285 170.595 216.304C170.75 216.351 170.813 216.397 170.879 216.512C170.949 216.633 170.918 216.73 170.77 216.852C170.739 216.877 170.737 216.882 170.752 216.901C170.766 216.918 170.782 216.92 170.851 216.914C170.954 216.905 171.007 216.919 171.054 216.967C171.104 217.018 171.104 217.079 171.055 217.12C171.017 217.152 170.954 217.174 170.9 217.174C170.882 217.174 170.857 217.18 170.845 217.186C170.799 217.21 170.819 217.24 170.931 217.319C170.992 217.361 171.055 217.411 171.072 217.432C171.147 217.521 171.171 217.629 171.131 217.691C171.094 217.747 170.947 217.824 170.842 217.844C170.818 217.848 170.798 217.855 170.798 217.86C170.798 217.884 170.838 217.918 170.882 217.931C171.023 217.973 171.141 218.072 171.205 218.201C171.261 218.312 171.257 218.324 171.146 218.424C170.988 218.565 170.985 218.568 170.985 218.605C170.985 218.652 171.017 218.678 171.164 218.748C171.233 218.781 171.308 218.824 171.331 218.844C171.376 218.884 171.422 218.967 171.434 219.032C171.452 219.125 171.382 219.223 171.257 219.282C171.168 219.324 171.166 219.326 171.166 219.355C171.166 219.378 171.185 219.392 171.296 219.447C171.501 219.548 171.555 219.615 171.565 219.777C171.57 219.859 171.566 219.882 171.545 219.934C171.513 220.006 171.461 220.056 171.376 220.093C171.343 220.108 171.312 220.128 171.308 220.138C171.299 220.161 171.337 220.194 171.415 220.234C171.534 220.293 171.673 220.445 171.673 220.515C171.673 220.551 171.669 220.555 171.604 220.578C171.509 220.613 171.48 220.647 171.485 220.719C171.486 220.729 171.525 220.795 171.572 220.867C171.656 220.993 171.684 221.062 171.684 221.137C171.684 221.208 171.635 221.265 171.571 221.265C171.548 221.265 171.523 221.276 171.508 221.29C171.469 221.33 171.484 221.386 171.585 221.562C171.737 221.826 171.76 221.909 171.709 221.992C171.691 222.021 171.667 222.039 171.628 222.053C171.598 222.064 171.563 222.083 171.551 222.095C171.519 222.124 171.534 222.146 171.621 222.198C171.722 222.257 171.841 222.375 171.878 222.449C171.904 222.502 171.907 222.522 171.901 222.568C171.894 222.616 171.883 222.633 171.82 222.693C171.776 222.737 171.705 222.787 171.636 222.825C171.574 222.859 171.517 222.894 171.51 222.902C171.486 222.932 171.525 222.943 171.65 222.941C171.825 222.94 171.903 222.966 172.009 223.066C172.053 223.107 172.102 223.167 172.12 223.199C172.162 223.277 172.186 223.392 172.173 223.458C172.168 223.486 172.162 223.513 172.162 223.517C172.162 223.521 172.145 223.545 172.124 223.569C172.073 223.627 172.009 223.654 171.923 223.655C171.845 223.655 171.83 223.661 171.82 223.696C171.814 223.714 171.83 223.741 171.884 223.807C171.981 223.925 172.003 223.976 171.992 224.06C171.977 224.181 171.944 224.269 171.89 224.325C171.845 224.371 171.835 224.376 171.767 224.384C171.656 224.396 171.639 224.425 171.689 224.512C171.737 224.593 171.78 224.737 171.771 224.784C171.748 224.911 171.601 225.047 171.436 225.094C171.354 225.118 171.304 225.105 171.258 225.05C171.24 225.029 171.219 225.008 171.21 225.003C171.178 224.985 171.14 225.026 171.113 225.106C171.086 225.185 171.035 225.262 170.984 225.3C170.947 225.328 170.846 225.341 170.811 225.322C170.795 225.314 170.767 225.271 170.743 225.219C170.72 225.169 170.696 225.126 170.69 225.121C170.664 225.105 170.639 225.136 170.619 225.206C170.583 225.337 170.531 225.38 170.408 225.38C170.347 225.38 170.223 225.343 170.209 225.321C170.205 225.315 170.213 225.29 170.227 225.264C170.256 225.206 170.258 225.17 170.229 225.17C170.216 225.17 170.199 225.189 170.184 225.22L170.16 225.269L170.127 225.202C170.109 225.165 170.087 225.135 170.078 225.135C170.046 225.135 170.049 225.176 170.086 225.248C170.123 225.32 170.124 225.323 170.104 225.346C170.078 225.374 169.948 225.415 169.89 225.414C169.867 225.413 169.833 225.409 169.814 225.403L169.815 225.403Z" fill="white"></path> </svg> 