<?xml version="1.0" encoding="UTF-8"?>
<!DOCTYPE svg PUBLIC "-//W3C//DTD SVG 1.1//EN" "http://www.w3.org/Graphics/SVG/1.1/DTD/svg11.dtd">
<!-- Creator: CorelDRAW 2018 -->
<svg xmlns="http://www.w3.org/2000/svg" xml:space="preserve" width="100mm" height="22.474mm" version="1.1" style="shape-rendering:geometricPrecision; text-rendering:geometricPrecision; image-rendering:optimizeQuality; fill-rule:evenodd; clip-rule:evenodd"
viewBox="0 0 1399.35 314.49"
 xmlns:xlink="http://www.w3.org/1999/xlink">
 <defs>
  <style type="text/css">
   <![CDATA[
    .str0 {stroke:#2B2A29;stroke-width:2.8;stroke-miterlimit:22.9256}
    .fil6 {fill:#FEFEFE}
    .fil7 {fill:#898989}
    .fil4 {fill:#5B5B5B}
    .fil0 {fill:#2B2A29}
    .fil1 {fill:#FEFEFE;fill-rule:nonzero}
    .fil5 {fill:#2B2A29;fill-rule:nonzero}
    .fil2 {fill:#2B2A29;fill-rule:nonzero}
    .fil3 {fill:#FF7E44;fill-rule:nonzero}
   ]]>
  </style>
 </defs>
 <g id="Слой_x0020_1">
  <metadata id="CorelCorpID_0Corel-Layer"/>
  <g id="_222806592">
   <rect class="fil0 str0" x="58.59" y="248.18" width="555.64" height="11.81"/>
   <path class="fil1" d="M209.34 247.99c-118.01,0.15 2.46,-0 -118.01,0.15l-32.74 0.04c-6.44,0.01 -15.6,0.03 -24.73,-2.03 -19.97,-4.51 -39.01,-18.15 -29.65,-59.6 11.97,-52.99 50.56,-88.74 97.47,-112.64 73.97,-37.69 168.81,-45.86 210.96,-45.86l17.39 0c16.26,0 54.49,1.38 88.85,17.36 34.93,16.25 65.71,47.31 65.71,106.56l0 16.56c0,21.84 -4.8,43.01 -16.44,57.98 -10.07,12.95 -25.07,21.18 -46.21,21.21l-212.59 0.27z"/>
   <path class="fil2" d="M209.34 249.75l-150.75 0.19 0 0.01 0 -0.01c-6.53,0.01 -15.8,0.03 -25.12,-2.08 -10.37,-2.34 -20.52,-7.08 -26.9,-16.69 -6.33,-9.52 -8.87,-23.74 -4.07,-45.01 5.67,-25.13 17.26,-46.42 32.86,-64.44 17.65,-20.4 40.41,-36.58 65.53,-49.38 30.4,-15.49 64.28,-26.01 96.61,-33.04 46.69,-10.15 90.15,-13.01 115.14,-13.01l17.39 0c8.18,0 21.89,0.35 37.89,2.71 16.02,2.36 34.34,6.75 51.69,14.82 17.72,8.24 34.39,20.26 46.66,37.75 12.26,17.48 20.08,40.39 20.08,70.41l0 16.56c0,11.55 -1.33,22.93 -4.28,33.35 -2.72,9.6 -6.82,18.38 -12.53,25.72 -5.39,6.93 -12.16,12.55 -20.48,16.37 -7.69,3.53 -16.68,5.5 -27.12,5.51l-212.59 0.27zm-118.01 -3.36l330.6 -0.42c9.91,-0.01 18.42,-1.87 25.66,-5.19 7.77,-3.57 14.1,-8.84 19.16,-15.34 5.42,-6.97 9.33,-15.34 11.92,-24.51 2.86,-10.08 4.15,-21.14 4.15,-32.4l0 -16.56c0,-29.23 -7.57,-51.48 -19.43,-68.4 -11.86,-16.91 -28.04,-28.56 -45.25,-36.57 -17,-7.91 -34.98,-12.21 -50.73,-14.53 -15.76,-2.33 -29.3,-2.67 -37.38,-2.67l-17.39 0c-24.83,0 -68.01,2.84 -114.4,12.93 -32.07,6.97 -65.66,17.4 -95.76,32.74 -24.75,12.61 -47.15,28.52 -64.47,48.54 -15.23,17.6 -26.55,38.39 -32.08,62.92 -4.56,20.19 -2.26,33.51 3.58,42.3 5.79,8.7 15.14,13.04 24.74,15.21 8.94,2.02 17.98,2 24.35,1.99l0 -0.01 0 0.01 32.74 -0.04z"/>
   <path class="fil3" d="M59.29 238.83l35.63 -0.04c9.92,-20.63 31.02,-34.87 55.44,-34.87 24.37,0 45.42,14.17 55.37,34.73l216.2 -0.27c17.86,-0.02 30.44,-6.86 38.8,-17.62 10.24,-13.16 14.46,-32.28 14.46,-52.22l0 -16.56c0,-54.6 -28.22,-83.15 -60.24,-98.05 -32.61,-15.17 -69.31,-16.48 -84.92,-16.48l-17.39 0c-41.36,0 -134.39,7.98 -206.71,44.83 -44.66,22.75 -81.35,56.55 -92.59,106.33 -7.66,33.94 7.05,44.91 22.57,48.41 8.15,1.84 16.68,1.82 22.68,1.81l0.7 -0z"/>
   <path class="fil2" d="M59.29 237.08l34.54 -0.04c5.2,-10.35 13.16,-19.07 22.91,-25.2 9.75,-6.13 21.27,-9.67 33.62,-9.67 12.32,0 23.82,3.53 33.56,9.63 9.74,6.11 17.69,14.79 22.91,25.1l215.11 -0.27c8.33,-0.01 15.46,-1.55 21.52,-4.29 6.48,-2.94 11.73,-7.29 15.9,-12.65 4.75,-6.11 8.17,-13.55 10.45,-21.79 2.51,-9.06 3.64,-19.09 3.64,-29.36l0 -16.56c0,-26.91 -6.93,-47.36 -17.79,-62.91 -10.86,-15.54 -25.67,-26.22 -41.43,-33.55 -16.13,-7.5 -33.29,-11.58 -48.35,-13.79 -15.08,-2.21 -28.07,-2.53 -35.83,-2.53l-17.39 0c-24.37,0 -66.73,2.78 -112.18,12.64 -31.42,6.81 -64.31,17.01 -93.73,32 -23.55,12 -44.85,27.08 -61.3,45.97 -14.46,16.61 -25.18,36.17 -30.37,59.18 -3.72,16.45 -2.07,27.24 2.36,34.3 4.36,6.95 11.52,10.35 18.88,12.02 7.96,1.8 16.37,1.78 22.29,1.77l0 -0.01 0 0.01 0.7 -0zm35.63 3.46l-36.33 0.05 0 0.01 -0 -0.01c-6.08,0.01 -14.73,0.03 -23.06,-1.86 -8.16,-1.84 -16.12,-5.67 -21.08,-13.57 -4.89,-7.79 -6.77,-19.45 -2.82,-36.94 5.34,-23.63 16.32,-43.7 31.14,-60.72 16.77,-19.26 38.44,-34.6 62.36,-46.79 29.72,-15.14 62.9,-25.43 94.58,-32.3 45.75,-9.92 88.39,-12.72 112.92,-12.72l17.39 0c7.86,0 21.02,0.33 36.34,2.57 15.34,2.24 32.83,6.41 49.31,14.07 16.27,7.57 31.58,18.62 42.84,34.73 11.25,16.11 18.44,37.23 18.44,64.91l0 16.56c0,10.55 -1.17,20.89 -3.78,30.29 -2.4,8.67 -6.02,16.53 -11.06,23.01 -4.51,5.79 -10.2,10.5 -17.23,13.69 -6.48,2.94 -14.09,4.59 -22.96,4.6l-217.3 0.27 -0.48 -0.99c-4.91,-10.15 -12.61,-18.69 -22.1,-24.65 -9.18,-5.75 -20.04,-9.08 -31.69,-9.08 -11.67,0 -22.56,3.34 -31.75,9.13 -9.51,5.98 -17.21,14.56 -22.11,24.74l-0.48 1 -1.1 0z"/>
   <path class="fil2" d="M311.28 56.21l53.52 0c10.18,0 19.42,4.16 26.12,10.86 6.7,6.7 10.86,15.95 10.86,26.12l0 92.73c0,10.18 -4.16,19.42 -10.86,26.12 -6.7,6.7 -15.95,10.86 -26.12,10.86l-97.4 0c-10.17,0 -19.42,-4.16 -26.12,-10.86 -6.7,-6.7 -10.86,-15.95 -10.86,-26.12l0 -19.87c0,-34.83 8.84,-59.65 21.25,-76.78 17.58,-24.26 42.34,-33.07 59.62,-33.07zm53.52 9.39l-53.52 0c-14.96,0 -36.52,7.77 -52.03,29.18 -11.36,15.68 -19.45,38.66 -19.45,71.27l0 19.87c0,7.58 3.11,14.48 8.11,19.49 5,5 11.9,8.11 19.49,8.11l97.4 0c7.58,0 14.48,-3.11 19.49,-8.11 5,-5 8.11,-11.9 8.11,-19.49l0 -92.73c0,-7.58 -3.11,-14.48 -8.11,-19.49 -5,-5 -11.9,-8.11 -19.49,-8.11z"/>
   <rect class="fil4" x="262.96" y="107.27" width="108.46" height="52.16" rx="16.56" ry="16.56"/>
   <path class="fil5" d="M279.52 103.75l75.34 0c5.53,0 10.55,2.26 14.18,5.9 3.64,3.64 5.9,8.66 5.9,14.18l0 19.04c0,5.52 -2.26,10.55 -5.9,14.18 -3.64,3.64 -8.66,5.9 -14.18,5.9l-75.34 0c-5.53,0 -10.55,-2.26 -14.19,-5.9 -3.64,-3.64 -5.9,-8.66 -5.9,-14.18l0 -19.04c0,-5.52 2.26,-10.55 5.9,-14.18 3.64,-3.64 8.66,-5.9 14.19,-5.9zm75.34 7.04l-75.34 0c-3.58,0 -6.84,1.47 -9.21,3.83 -2.36,2.36 -3.83,5.62 -3.83,9.21l0 19.04c0,3.58 1.47,6.84 3.83,9.21 2.36,2.36 5.62,3.83 9.21,3.83l75.34 0c3.58,0 6.84,-1.47 9.21,-3.83 2.36,-2.36 3.83,-5.62 3.83,-9.21l0 -19.04c0,-3.58 -1.47,-6.84 -3.83,-9.21 -2.36,-2.36 -5.62,-3.83 -9.21,-3.83z"/>
   <circle class="fil0" cx="150.36" cy="265.41" r="48.85"/>
   <path class="fil5" d="M150.36 216.32c13.55,0 25.83,5.5 34.71,14.38 8.88,8.88 14.38,21.15 14.38,34.71 0,13.55 -5.5,25.83 -14.38,34.71 -8.88,8.88 -21.15,14.38 -34.71,14.38 -13.55,0 -25.83,-5.49 -34.71,-14.38 -8.88,-8.88 -14.38,-21.15 -14.38,-34.71 0,-13.55 5.49,-25.83 14.38,-34.71 8.88,-8.88 21.15,-14.38 34.71,-14.38zm34.38 14.71c-8.8,-8.8 -20.95,-14.24 -34.38,-14.24 -13.42,0 -25.58,5.44 -34.38,14.24 -8.8,8.8 -14.24,20.95 -14.24,34.38 0,13.42 5.44,25.58 14.24,34.38 8.8,8.8 20.95,14.24 34.38,14.24 13.43,0 25.58,-5.44 34.38,-14.24 8.8,-8.8 14.24,-20.95 14.24,-34.38 0,-13.43 -5.44,-25.58 -14.24,-34.38z"/>
   <circle class="fil6" cx="150.36" cy="265.41" r="28.98"/>
   <path class="fil5" d="M150.36 236.19c8.07,0 15.37,3.27 20.66,8.56 5.29,5.29 8.56,12.59 8.56,20.66 0,8.07 -3.27,15.37 -8.56,20.66 -5.29,5.29 -12.59,8.56 -20.66,8.56 -8.07,0 -15.37,-3.27 -20.66,-8.56 -5.29,-5.29 -8.56,-12.59 -8.56,-20.66 0,-8.07 3.27,-15.37 8.56,-20.66 5.29,-5.29 12.59,-8.56 20.66,-8.56zm20.33 8.89c-5.2,-5.2 -12.39,-8.42 -20.33,-8.42 -7.94,0 -15.12,3.22 -20.32,8.42 -5.2,5.2 -8.42,12.39 -8.42,20.33 0,7.94 3.22,15.12 8.42,20.33 5.2,5.2 12.39,8.42 20.32,8.42 7.94,0 15.12,-3.22 20.33,-8.42 5.2,-5.2 8.42,-12.39 8.42,-20.33 0,-7.94 -3.22,-15.12 -8.42,-20.33z"/>
   <circle class="fil0" cx="150.36" cy="265.41" r="19.3"/>
   <path class="fil5" d="M150.36 245.87c5.39,0 10.28,2.19 13.81,5.72 3.53,3.53 5.72,8.42 5.72,13.81 0,5.39 -2.19,10.28 -5.72,13.81 -3.53,3.53 -8.42,5.72 -13.81,5.72 -5.39,0 -10.28,-2.19 -13.81,-5.72 -3.53,-3.53 -5.72,-8.42 -5.72,-13.81 0,-5.39 2.19,-10.28 5.72,-13.81 3.53,-3.53 8.42,-5.72 13.81,-5.72zm13.48 6.05c-3.45,-3.45 -8.22,-5.58 -13.48,-5.58 -5.26,0 -10.03,2.13 -13.48,5.58 -3.45,3.45 -5.58,8.22 -5.58,13.48 0,5.26 2.13,10.03 5.58,13.48 3.45,3.45 8.22,5.58 13.48,5.58 5.26,0 10.03,-2.13 13.48,-5.58 3.45,-3.45 5.58,-8.22 5.58,-13.48 0,-5.26 -2.13,-10.03 -5.58,-13.48z"/>
   <g>
    <polygon class="fil0" points="607.62,218.42 618.43,176.01 658.93,100.67 1148.59,102.93 1385.58,176.19 1387.87,242.32 1356.14,262.81 710.46,262.81 "/>
    <path class="fil5" d="M607.4 218.36l10.81 -42.43c13.57,-25.14 27.04,-50.34 40.58,-75.5 163.22,0.82 326.64,2.26 489.84,2.26 78.82,24.92 158.15,49 237.18,73.32 0.74,22.14 1.51,44.29 2.3,66.43 -10.63,6.87 -21.27,13.72 -31.89,20.6l-645.8 0c-34.36,-14.83 -68.72,-29.64 -103.06,-44.49l0.05 -0.19zm11.25 -42.26l-10.75 42.18 102.6 44.29 645.57 0 31.55 -20.38 -2.28 -65.83 -236.79 -73.2 -489.49 -2.26 -40.42 75.2z"/>
    <path class="fil7" d="M705.99 4.31c3.84,-4.62 233.49,0 350.23,0l123.2 98.36 175.84 20.43 23.04 20.28 7.29 32.81 11.43 5.96 0 49.68 -9.14 10.49 -27.89 0.09c-20.67,-97.33 -147.12,-89.57 -152.86,5.73l-338.68 -2.4c-8.06,-92.78 -142.31,-100.11 -162.8,-8.58l-98.01 -18.74 -5.46 -32.54c0,-2.4 -0.79,-7.36 5.04,-8.22l11.23 -1.65 1.41 -47.99c0.28,-9.51 4.51,-18.94 9.95,-26.75 23.49,-33.74 68,-87.1 76.2,-96.97z"/>
    <path class="fil5" d="M704.19 2.81c3.27,-3.94 106.74,-2.9 210.21,-1.87 51,0.51 102,1.02 141.81,1.02l0.81 0 123.32 98.46 175.9 20.44c8.05,7.09 16.1,14.18 24.15,21.26l7.22 32.5 11.73 6.12 0 51.97 -10.41 11.95 -30.86 0.1 -0.39 -1.86c-6.68,-31.47 -24.65,-51.64 -45.88,-61.16 -11.18,-5.01 -23.28,-7.07 -35.11,-6.28 -11.81,0.79 -23.36,4.43 -33.47,10.84 -18.38,11.66 -32,32.49 -33.78,61.98l-0.13 2.22c-114.35,-0.8 -228.69,-1.62 -343.04,-2.43l-0.18 -2.12c-2.44,-28.12 -16.79,-48.14 -35.98,-59.68 -11.37,-6.83 -24.43,-10.71 -37.75,-11.54 -13.32,-0.84 -26.87,1.37 -39.17,6.7 -21.29,9.22 -38.91,27.82 -45.27,56.24l-0.5 2.22c-33.95,-6.49 -67.89,-12.98 -101.84,-19.47l-5.77 -34.37 0 -0.17c0,-0.48 -0,-0.6 -0.01,-0.72 -0.1,-3.36 -0.26,-8.74 7.06,-9.82l9.29 -1.36 1.35 -46.02c0.14,-4.73 1.19,-9.43 2.87,-13.92 1.87,-5.04 4.51,-9.82 7.49,-14.1 22.84,-32.8 65.63,-84.25 75.56,-96.2l0.77 -0.93zm210.17 2.81c-102.36,-1.02 -204.73,-2.04 -206.58,0.18l-0.77 0.93c-9.88,11.89 -52.47,63.1 -75.3,95.88 -2.79,4.01 -5.24,8.44 -6.96,13.05 -1.5,4.04 -2.45,8.23 -2.57,12.42l-1.47 49.96 -13.17 1.94c-3.19,0.47 -3.11,3.29 -3.06,5.05l0.02 0.65 5.16 30.75 94.21 18.01c7.13,-28.81 25.44,-47.77 47.46,-57.31 13,-5.63 27.29,-7.96 41.32,-7.08 14.04,0.88 27.84,4.98 39.85,12.2 19.92,11.98 34.93,32.5 38.05,61.17l334.37 2.37c2.42,-30 16.68,-51.34 35.79,-63.45 10.77,-6.83 23.08,-10.71 35.67,-11.56 12.57,-0.84 25.43,1.36 37.33,6.69 22.08,9.9 40.81,30.56 48.14,62.6l24.93 -0.08 7.87 -9.03 0 -47.39 -11.13 -5.8 -7.36 -33.12 -21.92 -19.3 -175.77 -20.42 -123.08 -98.27c-37.94,-0.01 -89.49,-0.52 -141.04,-1.04z"/>
    <path class="fil4" d="M1157.35 140.97l37.84 0 0 62.98 -37.84 0c1.61,-23.48 1.65,-37.54 0,-62.98z"/>
    <circle class="fil0" cx="786.96" cy="249.71" r="64.54"/>
    <path class="fil5" d="M786.96 184.94c17.89,0 34.08,7.25 45.8,18.97 11.72,11.72 18.97,27.92 18.97,45.8 0,17.89 -7.25,34.08 -18.97,45.8 -11.72,11.72 -27.92,18.97 -45.8,18.97 -17.89,0 -34.08,-7.25 -45.8,-18.97 -11.72,-11.72 -18.97,-27.92 -18.97,-45.8 0,-17.89 7.25,-34.08 18.97,-45.8 11.72,-11.72 27.92,-18.97 45.8,-18.97zm45.47 19.3c-11.64,-11.64 -27.71,-18.84 -45.47,-18.84 -17.76,0 -33.83,7.2 -45.47,18.84 -11.64,11.64 -18.84,27.71 -18.84,45.47 0,17.76 7.2,33.83 18.84,45.47 11.64,11.64 27.71,18.84 45.47,18.84 17.76,0 33.83,-7.2 45.47,-18.84 11.64,-11.64 18.84,-27.71 18.84,-45.47 0,-17.76 -7.2,-33.83 -18.84,-45.47z"/>
    <circle class="fil6" cx="786.96" cy="249.71" r="49.68"/>
    <path class="fil5" d="M786.96 199.8c13.78,0 26.26,5.59 35.29,14.62 9.03,9.03 14.62,21.51 14.62,35.29 0,13.78 -5.59,26.26 -14.62,35.29 -9.03,9.03 -21.51,14.62 -35.29,14.62 -13.78,0 -26.26,-5.59 -35.29,-14.62 -9.03,-9.03 -14.62,-21.51 -14.62,-35.29 0,-13.78 5.59,-26.26 14.62,-35.29 9.03,-9.03 21.51,-14.62 35.29,-14.62zm34.96 14.95c-8.95,-8.95 -21.31,-14.48 -34.96,-14.48 -13.65,0 -26.02,5.53 -34.96,14.48 -8.95,8.95 -14.48,21.31 -14.48,34.96 0,13.65 5.53,26.01 14.48,34.96 8.95,8.95 21.31,14.48 34.96,14.48 13.65,0 26.01,-5.53 34.96,-14.48 8.95,-8.95 14.48,-21.31 14.48,-34.96 0,-13.65 -5.53,-26.01 -14.48,-34.96z"/>
    <circle class="fil0" cx="786.96" cy="249.71" r="18.88"/>
    <path class="fil5" d="M786.96 230.6c5.28,0 10.06,2.14 13.51,5.6 3.46,3.46 5.6,8.24 5.6,13.51 0,5.28 -2.14,10.06 -5.6,13.51 -3.46,3.46 -8.24,5.6 -13.51,5.6 -5.28,0 -10.06,-2.14 -13.51,-5.6 -3.46,-3.46 -5.6,-8.24 -5.6,-13.51 0,-5.28 2.14,-10.06 5.6,-13.51 3.46,-3.46 8.24,-5.6 13.51,-5.6zm13.18 5.93c-3.37,-3.37 -8.03,-5.46 -13.18,-5.46 -5.15,0 -9.81,2.09 -13.18,5.46 -3.37,3.37 -5.46,8.03 -5.46,13.18 0,5.15 2.09,9.81 5.46,13.18 3.37,3.37 8.04,5.46 13.18,5.46 5.15,0 9.81,-2.09 13.18,-5.46 3.37,-3.37 5.46,-8.03 5.46,-13.18 0,-5.15 -2.09,-9.81 -5.46,-13.18z"/>
    <circle class="fil0" cx="1281.75" cy="249.71" r="64.54"/>
    <path class="fil5" d="M1281.75 184.94c17.89,0 34.08,7.25 45.8,18.97 11.72,11.72 18.97,27.92 18.97,45.8 0,17.89 -7.25,34.08 -18.97,45.8 -11.72,11.72 -27.92,18.97 -45.8,18.97 -17.89,0 -34.08,-7.25 -45.8,-18.97 -11.72,-11.72 -18.97,-27.92 -18.97,-45.8 0,-17.89 7.25,-34.08 18.97,-45.8 11.72,-11.72 27.92,-18.97 45.8,-18.97zm45.47 19.3c-11.64,-11.64 -27.72,-18.84 -45.47,-18.84 -17.76,0 -33.83,7.2 -45.47,18.84 -11.64,11.64 -18.84,27.71 -18.84,45.47 0,17.76 7.2,33.83 18.84,45.47 11.64,11.64 27.71,18.84 45.47,18.84 17.76,0 33.84,-7.2 45.47,-18.84 11.64,-11.64 18.84,-27.71 18.84,-45.47 0,-17.76 -7.2,-33.83 -18.84,-45.47z"/>
    <circle class="fil6" cx="1281.75" cy="249.71" r="49.68"/>
    <path class="fil5" d="M1281.75 199.8c13.78,0 26.26,5.59 35.29,14.62 9.03,9.03 14.62,21.51 14.62,35.29 0,13.78 -5.59,26.26 -14.62,35.29 -9.03,9.03 -21.51,14.62 -35.29,14.62 -13.78,0 -26.26,-5.59 -35.29,-14.62 -9.03,-9.03 -14.62,-21.51 -14.62,-35.29 0,-13.78 5.59,-26.26 14.62,-35.29 9.03,-9.03 21.51,-14.62 35.29,-14.62zm34.96 14.95c-8.95,-8.95 -21.31,-14.48 -34.96,-14.48 -13.65,0 -26.01,5.53 -34.96,14.48 -8.95,8.95 -14.48,21.31 -14.48,34.96 0,13.65 5.53,26.01 14.48,34.96 8.95,8.95 21.31,14.48 34.96,14.48 13.65,0 26.02,-5.53 34.96,-14.48 8.95,-8.95 14.48,-21.31 14.48,-34.96 0,-13.65 -5.53,-26.01 -14.48,-34.96z"/>
    <circle class="fil0" cx="1281.75" cy="249.71" r="18.88"/>
    <path class="fil5" d="M1281.75 230.6c5.28,0 10.06,2.14 13.51,5.6 3.46,3.46 5.6,8.24 5.6,13.51 0,5.28 -2.14,10.06 -5.6,13.51 -3.46,3.46 -8.24,5.6 -13.51,5.6 -5.28,0 -10.06,-2.14 -13.51,-5.6 -3.46,-3.46 -5.6,-8.24 -5.6,-13.51 0,-5.28 2.14,-10.06 5.6,-13.51 3.46,-3.46 8.24,-5.6 13.51,-5.6zm13.18 5.93c-3.37,-3.37 -8.04,-5.46 -13.18,-5.46 -5.15,0 -9.81,2.09 -13.18,5.46 -3.37,3.37 -5.46,8.03 -5.46,13.18 0,5.15 2.09,9.81 5.46,13.18 3.37,3.37 8.04,5.46 13.18,5.46 5.15,0 9.81,-2.09 13.18,-5.46 3.37,-3.37 5.46,-8.03 5.46,-13.18 0,-5.15 -2.09,-9.81 -5.46,-13.18z"/>
    <polygon class="fil0" points="727.05,9.52 1040.14,9.52 1150.27,101.97 658.93,100.66 "/>
    <path class="fil5" d="M727.05 9.29l313.17 0c36.85,31.02 73.79,61.95 110.7,92.92 -164.15,-0.42 -328.3,-0.81 -492.46,-1.31 22.82,-30.54 45.62,-61.09 68.47,-91.61l0.12 0zm313 0.47l-312.89 0 -67.77 90.68 490.23 1.31 -109.58 -91.98z"/>
    <polygon class="fil0" points="619.84,128.02 1377.04,142.28 1378.29,143.38 1378.83,145.8 619.84,131.95 "/>
    <path class="fil5" d="M619.84 127.79l757.29 14.26 1.37 1.2 0.62 2.79c-253.17,-4.61 -506.34,-9.22 -759.51,-13.86l0 -4.4 0.24 0zm757.11 14.73l-756.88 -14.25 0 3.46 758.46 13.84 -0.46 -2.05 -1.13 -0.99z"/>
    <rect class="fil0" x="799.26" y="101.71" width="3.48" height="70.51"/>
    <path class="fil5" d="M799.54 101.3l3.43 -0.04 0 71.19 -3.95 0 0.03 -71.21 0.48 0.06zm2.96 0.64l-3.01 0 0 70.04 3.01 0 0 -70.04z"/>
    <path class="fil5" d="M964.79 101.74c1.96,3.69 3.32,11.87 4.57,21.69 2.35,18.53 3.54,41.5 3.54,42.76l-0.01 0 0 0.97c0.01,12.26 0.03,70.14 -4.49,80.04l-3.19 -1.46c4.21,-9.21 4.18,-66.46 4.18,-78.58l0 -0.97 -0.01 0c0,-1.25 -1.17,-24 -3.5,-42.31 -1.2,-9.45 -3.33,-18.86 -5.07,-22.14l3.98 0.01z"/>
    <path class="fil5" d="M1150.82 102.14c1.96,3.69 4.43,11.47 5.68,21.28 2.35,18.53 3.54,41.5 3.54,42.76l-0.01 0 0 0.97c0.01,12.26 0.03,70.14 -4.49,80.04l-3.19 -1.46c4.21,-9.21 4.18,-66.46 4.18,-78.58l0 -0.97 -0.01 0c0,-1.25 -1.17,-24 -3.5,-42.31 -1.2,-9.45 -3.64,-18.4 -5.38,-21.68l3.18 -0.04z"/>
    <rect class="fil4" x="973.38" y="129.2" width="43.22" height="7.45"/>
    <rect class="fil4" x="808.95" y="126.7" width="42.97" height="7.45"/>
    <polygon class="fil0" points="614.23,259.99 633.83,251.49 647.68,235.71 647.68,226.08 613.94,219.62 607.17,248.18 "/>
   </g>
  </g>
 </g>
</svg>
